<?xml version="1.0" standalone="no"?>
<!DOCTYPE svg PUBLIC "-//W3C//DTD SVG 1.1//EN" "http://www.w3.org/Graphics/SVG/1.1/DTD/svg11.dtd" >
<svg xmlns="http://www.w3.org/2000/svg" xmlns:xlink="http://www.w3.org/1999/xlink" version="1.1">
<metadata>
Created by FontForge 20150501 at Tue Apr 11 10:13:17 2017
 By Josef Pospíšil
Copyright (c) 2010 by Tomas Brousil. All rights reserved.
</metadata>
<defs>
<font id="MonopolLight" horiz-adv-x="268" >
  <font-face 
    font-family="Monopol Light"
    font-weight="300"
    font-stretch="normal"
    units-per-em="1000"
    panose-1="2 0 5 6 3 0 0 2 0 4"
    ascent="740"
    descent="-260"
    x-height="555"
    cap-height="700"
    bbox="-88 -160 980 869"
    underline-thickness="80"
    underline-position="-100"
    stemh="37"
    stemv="38"
    unicode-range="U+0020-FB02"
  />
<missing-glyph horiz-adv-x="830" 
d="M100 0v630h630v-630h-630zM415 280l-230 -230h460zM185 580l230 -230l230 230h-460zM450 315l230 -230v460zM380 315l-230 230v-460z" />
    <glyph glyph-name="f_f" unicode="ff" horiz-adv-x="356" 
d="M104 626v-71h121v72c0 84 26 137 124 113v-35c-64 17 -86 -12 -86 -79v-71h86v-37h-86v-518h-38v518h-121v-518h-38v518h-58v37h58v72c0 84 26 137 124 113v-35c-64 17 -86 -12 -86 -79z" />
    <glyph glyph-name="f_i" unicode="fi" horiz-adv-x="298" 
d="M104 626v-71h159v-555h-38v518h-121v-518h-38v518h-58v37h58v72c0 84 26 137 124 113v-35c-64 17 -86 -12 -86 -79zM219 678c0 15 10 25 25 25c14 0 25 -10 25 -25c0 -14 -11 -25 -25 -25c-15 0 -25 11 -25 25z" />
    <glyph glyph-name="f_l" unicode="fl" horiz-adv-x="298" 
d="M104 626v-71h86v-37h-86v-518h-38v518h-58v37h58v72c0 84 17 137 197 113v-740h-38v709c-112 8 -121 -23 -121 -83z" />
    <glyph glyph-name="f_t" unicode="ft" horiz-adv-x="356" 
d="M263 677v-122h86v-37h-86v-404c0 -67 22 -95 86 -79v-35c-98 -24 -124 29 -124 113v405h-121v-518h-38v518h-58v37h58v72c0 84 26 137 124 113v-35c-64 17 -86 -12 -86 -79v-71h121v115z" />
    <glyph glyph-name=".notdef" horiz-adv-x="830" 
d="M100 0v630h630v-630h-630zM415 280l-230 -230h460zM185 580l230 -230l230 230h-460zM450 315l230 -230v460zM380 315l-230 230v-460z" />
    <glyph glyph-name=".null" horiz-adv-x="0" 
 />
    <glyph glyph-name="CR" horiz-adv-x="0" 
 />
    <glyph glyph-name="space" unicode=" " horiz-adv-x="140" 
 />
    <glyph glyph-name="nbspace" unicode="&#xa0;" horiz-adv-x="140" 
 />
    <glyph glyph-name="A" unicode="A" 
d="M8 0l107 700h38l107 -700h-38l-25 170h-126l-26 -170h-37zM75 207h118l-59 390z" />
    <glyph glyph-name="A.salt" 
d="M35 0v611c0 57 42 99 99 99s99 -42 99 -99v-611h-38v232h-122v-232h-38zM73 269h122v342c0 36 -26 62 -61 62s-61 -26 -61 -62v-342z" />
    <glyph glyph-name="B" unicode="B" 
d="M35 0v700h99c57 0 99 -42 99 -99v-165c0 -38 -18 -69 -47 -86c29 -16 47 -47 47 -85v-166c0 -57 -42 -99 -99 -99h-99zM73 37h61c35 0 61 26 61 62v171c0 36 -26 62 -61 62h-61v-295zM73 369h61c35 0 61 26 61 62v170c0 36 -26 62 -61 62h-61v-294z" />
    <glyph glyph-name="C" unicode="C" 
d="M35 89v522c0 57 42 99 99 99s99 -42 99 -99v-123h-38v123c0 36 -26 62 -61 62s-61 -26 -61 -62v-522c0 -36 26 -62 61 -62s61 26 61 62v124h38v-124c0 -57 -42 -99 -99 -99s-99 42 -99 99z" />
    <glyph glyph-name="D" unicode="D" 
d="M35 0v700h99c57 0 99 -42 99 -99v-502c0 -57 -42 -99 -99 -99h-99zM73 37h61c35 0 61 26 61 62v502c0 36 -26 62 -61 62h-61v-626z" />
    <glyph glyph-name="E" unicode="E" horiz-adv-x="225" 
d="M35 0v700h173v-37h-135v-294h115v-37h-115v-295h135v-37h-173z" />
    <glyph glyph-name="E.salt" 
d="M233 488h-38v123c0 36 -26 62 -61 62s-61 -26 -61 -62v-180c0 -36 26 -62 61 -62h79v-37h-79c-35 0 -61 -26 -61 -62v-181c0 -36 26 -62 61 -62s61 26 61 62v124h38v-124c0 -57 -42 -99 -99 -99s-99 42 -99 99v176c0 38 18 69 47 85c-29 17 -47 48 -47 86v175
c0 57 42 99 99 99s99 -42 99 -99v-123z" />
    <glyph glyph-name="F" unicode="F" horiz-adv-x="225" 
d="M35 0v700h173v-37h-135v-294h115v-37h-115v-332h-38z" />
    <glyph glyph-name="G" unicode="G" 
d="M35 89v522c0 57 42 99 99 99s99 -42 99 -99v-123h-38v123c0 36 -26 62 -61 62s-61 -26 -61 -62v-522c0 -36 26 -62 61 -62s61 26 61 62v237h-61v37h99v-274c0 -57 -42 -99 -99 -99s-99 42 -99 99z" />
    <glyph glyph-name="H" unicode="H" 
d="M35 0v700h38v-331h122v331h38v-700h-38v332h-122v-332h-38z" />
    <glyph glyph-name="I" unicode="I" horiz-adv-x="108" 
d="M35 0v700h38v-700h-38z" />
    <glyph glyph-name="I.salt" 
d="M35 0v37h80v626h-80v37h198v-37h-80v-626h80v-37h-198z" />
    <glyph glyph-name="J" unicode="J" horiz-adv-x="238" 
d="M20 213h38v-124c0 -36 26 -62 61 -62s61 26 61 62v611h38v-611c0 -57 -42 -99 -99 -99s-99 42 -99 99v124z" />
    <glyph glyph-name="K" unicode="K" 
d="M35 0v700h38v-338l141 338h38l-144 -347l145 -353h-39l-141 338v-338h-38z" />
    <glyph glyph-name="L" unicode="L" horiz-adv-x="215" 
d="M35 0v700h38v-663h125v-37h-163z" />
    <glyph glyph-name="M" unicode="M" horiz-adv-x="345" 
d="M35 0v700h42l103 -605l100 605h45v-700h-35v580l-97 -580h-26l-97 580v-580h-35z" />
    <glyph glyph-name="N" unicode="N" horiz-adv-x="278" 
d="M35 0v700h37l136 -576v576h35v-700h-37l-136 576v-576h-35z" />
    <glyph glyph-name="O" unicode="O" 
d="M35 89v522c0 57 42 99 99 99s99 -42 99 -99v-522c0 -57 -42 -99 -99 -99s-99 42 -99 99zM73 89c0 -36 26 -62 61 -62s61 26 61 62v522c0 36 -26 62 -61 62s-61 -26 -61 -62v-522z" />
    <glyph glyph-name="P" unicode="P" 
d="M35 0v700h99c57 0 99 -42 99 -99v-208c0 -57 -42 -99 -99 -99h-61v-294h-38zM73 331h61c35 0 61 26 61 62v208c0 36 -26 62 -61 62h-61v-332z" />
    <glyph glyph-name="Q" unicode="Q" 
d="M248 -56l-60 61c-16 -9 -34 -15 -54 -15c-57 0 -99 42 -99 99v522c0 57 42 99 99 99s99 -42 99 -99v-522c0 -23 -7 -43 -18 -59l60 -59zM73 89c0 -36 26 -62 61 -62s61 26 61 62v522c0 36 -26 62 -61 62s-61 -26 -61 -62v-522z" />
    <glyph glyph-name="R" unicode="R" 
d="M35 0v700h99c57 0 99 -42 99 -99v-173c0 -38 -18 -69 -47 -86c29 -16 47 -47 47 -85v-257h-38v262c0 36 -26 62 -61 62h-61v-324h-38zM73 361h61c35 0 61 26 61 62v178c0 36 -26 62 -61 62h-61v-302z" />
    <glyph glyph-name="S" unicode="S" 
d="M35 213h38v-124c0 -36 26 -62 61 -62s61 26 61 62v106c0 109 -160 179 -160 311v105c0 57 42 99 99 99s99 -42 99 -99v-123h-38v123c0 36 -26 62 -61 62s-61 -26 -61 -62v-105c0 -109 160 -179 160 -311v-106c0 -57 -42 -99 -99 -99s-99 42 -99 99v124z" />
    <glyph glyph-name="T" unicode="T" horiz-adv-x="248" 
d="M105 0v663h-96v37h230v-37h-96v-663h-38z" />
    <glyph glyph-name="U" unicode="U" 
d="M35 700h38v-611c0 -36 26 -62 61 -62s61 26 61 62v611h38v-611c0 -57 -42 -99 -99 -99s-99 42 -99 99v611z" />
    <glyph glyph-name="V" unicode="V" 
d="M8 700h37l89 -597l88 597h38l-107 -700h-38z" />
    <glyph glyph-name="W" unicode="W" horiz-adv-x="390" 
d="M132 700h35l28 -214l29 214h35l-46 -311l43 -292l89 603h38l-108 -700h-35l-45 298l-45 -298h-35l-107 700h37l90 -603l42 288z" />
    <glyph glyph-name="X" unicode="X" 
d="M8 0l104 349l-105 351h38l89 -299l89 299h38l-105 -351l104 -349h-38l-88 298l-88 -298h-38z" />
    <glyph glyph-name="Y" unicode="Y" 
d="M115 0v276l-107 424h37l89 -355l88 355h38l-107 -424v-276h-38z" />
    <glyph glyph-name="Y.salt" 
d="M233 700v-611c0 -57 -42 -99 -99 -99s-99 42 -99 99v124h38v-124c0 -36 26 -62 61 -62s61 26 61 62v250c-13 -16 -35 -32 -68 -32c-53 0 -92 42 -92 99v294h38v-294c0 -36 26 -62 61 -62s61 26 61 62v294h38z" />
    <glyph glyph-name="Z" unicode="Z" horiz-adv-x="223" 
d="M18 0v37l148 626h-148v37h187v-37l-148 -626h148v-37h-187z" />
    <glyph glyph-name="AE" unicode="&#xc6;" horiz-adv-x="412" 
d="M222 0v170h-128l-49 -170h-37l205 700h182v-37h-135v-294h115v-37h-115v-295h135v-37h-173zM104 207h118v409z" />
    <glyph glyph-name="Eng" unicode="&#x14a;" horiz-adv-x="278" 
d="M35 0v700h37l136 -576v576h35v-720c0 -99 -18 -154 -113 -130v35c67 -18 78 17 78 99v10l-138 582v-576h-35z" />
    <glyph glyph-name="Eth" unicode="&#xd0;" 
d="M0 335v31h35v334h99c57 0 99 -42 99 -99v-502c0 -57 -42 -99 -99 -99h-99v335h-35zM73 37h61c35 0 61 26 61 62v502c0 36 -26 62 -61 62h-61v-297h51v-31h-51v-298z" />
    <glyph glyph-name="IJ" unicode="&#x132;" horiz-adv-x="345" 
d="M35 0v700h38v-700h-38zM127 213h38v-124c0 -36 26 -62 61 -62s61 26 61 62v611h38v-611c0 -57 -42 -99 -99 -99s-99 42 -99 99v124z" />
    <glyph glyph-name="IJ.salt" horiz-adv-x="505" 
d="M287 213h38v-124c0 -36 26 -62 61 -62s61 26 61 62v611h38v-611c0 -57 -42 -99 -99 -99s-99 42 -99 99v124zM35 0v37h80v626h-80v37h198v-37h-80v-626h80v-37h-198z" />
    <glyph glyph-name="OE" unicode="&#x152;" horiz-adv-x="385" 
d="M195 0v9c-17 -12 -38 -19 -61 -19c-57 0 -99 42 -99 99v522c0 57 42 99 99 99c23 0 44 -7 61 -20v10h173v-37h-135v-294h115v-37h-115v-243v-4v-48h135v-37h-173zM73 89c0 -36 26 -62 61 -62s61 26 61 62v527c-3 33 -28 57 -61 57c-35 0 -61 -26 -61 -62v-522z" />
    <glyph glyph-name="Oslash" unicode="&#xd8;" 
d="M58 -40h-35l21 86c-6 13 -9 27 -9 43v522c0 57 42 99 99 99c24 0 46 -8 63 -22l13 52h35l-21 -87c5 -12 9 -27 9 -42v-522c0 -57 -42 -99 -99 -99c-25 0 -47 8 -64 21zM73 611v-444l114 476c-11 18 -30 30 -53 30c-35 0 -61 -26 -61 -62zM134 27c35 0 61 26 61 62v442
l-114 -475c10 -18 30 -29 53 -29z" />
    <glyph glyph-name="Thorn" unicode="&#xde;" 
d="M35 0v700h38v-159h61c57 0 99 -42 99 -99v-184c0 -57 -42 -99 -99 -99h-61v-159h-38zM73 196h61c35 0 61 26 61 62v184c0 36 -26 62 -61 62h-61v-308z" />
    <glyph glyph-name="Aacute" unicode="&#xc1;" 
d="M8 0l107 700h38l107 -700h-38l-25 170h-126l-26 -170h-37zM75 207h118l-59 390zM116 740l63 115h42l-71 -115h-34z" />
    <glyph glyph-name="Abreve" unicode="&#x102;" 
d="M8 0l107 700h38l107 -700h-38l-25 170h-126l-26 -170h-37zM75 207h118l-59 390zM186 855h32c0 -67 -17 -120 -84 -120c-68 0 -85 53 -85 120h33c0 -50 9 -90 52 -90c42 0 52 40 52 90z" />
    <glyph glyph-name="Acircumflex" unicode="&#xc2;" 
d="M8 0l107 700h38l107 -700h-38l-25 170h-126l-26 -170h-37zM75 207h118l-59 390zM157 855l68 -115h-37l-55 95l-55 -95h-37l69 115h47z" />
    <glyph glyph-name="Adieresis" unicode="&#xc4;" 
d="M8 0l107 700h38l107 -700h-38l-25 170h-126l-26 -170h-37zM75 207h118l-59 390zM54 793c0 14 10 25 24 25s25 -11 25 -25s-11 -24 -25 -24s-24 10 -24 24zM165 793c0 14 10 25 24 25s24 -11 24 -25s-10 -24 -24 -24s-24 10 -24 24z" />
    <glyph glyph-name="Agrave" unicode="&#xc0;" 
d="M8 0l107 700h38l107 -700h-38l-25 170h-126l-26 -170h-37zM75 207h118l-59 390zM117 740l-71 115h42l63 -115h-34z" />
    <glyph glyph-name="Amacron" unicode="&#x100;" 
d="M8 0l107 700h38l107 -700h-38l-25 170h-126l-26 -170h-37zM75 207h118l-59 390zM56 777v32h155v-32h-155z" />
    <glyph glyph-name="Aogonek" unicode="&#x104;" 
d="M8 0l107 700h38l107 -700h-6c-38 -59 -42 -131 2 -131c6 0 14 2 22 5v-27c-10 -5 -22 -7 -32 -7c-64 0 -73 83 -24 160l-25 170h-126l-26 -170h-37zM75 207h118l-59 390z" />
    <glyph glyph-name="Aring" unicode="&#xc5;" 
d="M8 0l107 700h38l107 -700h-38l-25 170h-126l-26 -170h-37zM75 207h118l-59 390zM62 798c0 41 30 71 72 71c41 0 71 -30 71 -71s-30 -71 -71 -71c-42 0 -72 30 -72 71zM93 798c0 -26 18 -44 41 -44s40 18 40 44c0 25 -17 43 -40 43s-41 -18 -41 -43z" />
    <glyph glyph-name="Atilde" unicode="&#xc3;" 
d="M8 0l107 700h38l107 -700h-38l-25 170h-126l-26 -170h-37zM75 207h118l-59 390zM24 788c23 43 45 58 67 58c44 0 59 -58 86 -58c13 0 26 12 43 41l23 -14c-23 -43 -45 -58 -67 -58c-44 0 -59 58 -86 58c-14 0 -27 -12 -44 -42z" />
    <glyph glyph-name="Aacute.salt" 
d="M35 0v611c0 57 42 99 99 99s99 -42 99 -99v-611h-38v232h-122v-232h-38zM73 269h122v342c0 36 -26 62 -61 62s-61 -26 -61 -62v-342zM116 740l63 115h42l-71 -115h-34z" />
    <glyph glyph-name="Abreve.salt" 
d="M186 855h32c0 -67 -17 -120 -84 -120c-68 0 -85 53 -85 120h33c0 -50 9 -90 52 -90c42 0 52 40 52 90zM35 0v611c0 57 42 99 99 99s99 -42 99 -99v-611h-38v232h-122v-232h-38zM73 269h122v342c0 36 -26 62 -61 62s-61 -26 -61 -62v-342z" />
    <glyph glyph-name="Acircumflex.salt" 
d="M35 0v611c0 57 42 99 99 99s99 -42 99 -99v-611h-38v232h-122v-232h-38zM73 269h122v342c0 36 -26 62 -61 62s-61 -26 -61 -62v-342zM157 855l68 -115h-37l-55 95l-55 -95h-37l69 115h47z" />
    <glyph glyph-name="Adieresis.salt" 
d="M54 793c0 14 10 25 24 25s25 -11 25 -25s-11 -24 -25 -24s-24 10 -24 24zM165 793c0 14 10 25 24 25s24 -11 24 -25s-10 -24 -24 -24s-24 10 -24 24zM35 0v611c0 57 42 99 99 99s99 -42 99 -99v-611h-38v232h-122v-232h-38zM73 269h122v342c0 36 -26 62 -61 62
s-61 -26 -61 -62v-342z" />
    <glyph glyph-name="Agrave.salt" 
d="M117 740l-71 115h42l63 -115h-34zM35 0v611c0 57 42 99 99 99s99 -42 99 -99v-611h-38v232h-122v-232h-38zM73 269h122v342c0 36 -26 62 -61 62s-61 -26 -61 -62v-342z" />
    <glyph glyph-name="Amacron.salt" 
d="M56 777v32h155v-32h-155zM35 0v611c0 57 42 99 99 99s99 -42 99 -99v-611h-38v232h-122v-232h-38zM73 269h122v342c0 36 -26 62 -61 62s-61 -26 -61 -62v-342z" />
    <glyph glyph-name="Aogonek.salt" 
d="M35 0v611c0 57 42 99 99 99s99 -42 99 -99v-611h-7c-38 -59 -42 -131 2 -131c6 0 14 2 22 5v-27c-10 -5 -22 -7 -32 -7c-64 0 -73 84 -23 161v231h-122v-232h-38zM73 269h122v342c0 36 -26 62 -61 62s-61 -26 -61 -62v-342z" />
    <glyph glyph-name="Aring.salt" 
d="M35 0v611c0 57 42 99 99 99s99 -42 99 -99v-611h-38v232h-122v-232h-38zM73 269h122v342c0 36 -26 62 -61 62s-61 -26 -61 -62v-342zM62 798c0 41 30 71 72 71c41 0 71 -30 71 -71s-30 -71 -71 -71c-42 0 -72 30 -72 71zM93 798c0 -26 18 -44 41 -44s40 18 40 44
c0 25 -17 43 -40 43s-41 -18 -41 -43z" />
    <glyph glyph-name="Atilde.salt" 
d="M24 788c23 43 45 58 67 58c44 0 59 -58 86 -58c13 0 26 12 43 41l23 -14c-23 -43 -45 -58 -67 -58c-44 0 -59 58 -86 58c-14 0 -27 -12 -44 -42zM35 0v611c0 57 42 99 99 99s99 -42 99 -99v-611h-38v232h-122v-232h-38zM73 269h122v342c0 36 -26 62 -61 62
s-61 -26 -61 -62v-342z" />
    <glyph glyph-name="Cacute" unicode="&#x106;" 
d="M35 89v522c0 57 42 99 99 99s99 -42 99 -99v-123h-38v123c0 36 -26 62 -61 62s-61 -26 -61 -62v-522c0 -36 26 -62 61 -62s61 26 61 62v124h38v-124c0 -57 -42 -99 -99 -99s-99 42 -99 99zM101 740l63 115h42l-71 -115h-34z" />
    <glyph glyph-name="Ccaron" unicode="&#x10c;" 
d="M35 89v522c0 57 42 99 99 99s99 -42 99 -99v-123h-38v123c0 36 -26 62 -61 62s-61 -26 -61 -62v-522c0 -36 26 -62 61 -62s61 26 61 62v124h38v-124c0 -57 -42 -99 -99 -99s-99 42 -99 99zM110 740l-69 115h37l55 -95l55 95h37l-68 -115h-47z" />
    <glyph glyph-name="Ccedilla" unicode="&#xc7;" 
d="M35 89v522c0 57 42 99 99 99s99 -42 99 -99v-123h-38v123c0 36 -26 62 -61 62s-61 -26 -61 -62v-522c0 -36 26 -62 61 -62s61 26 61 62v124h38v-124c0 -51 -33 -89 -81 -97c-6 -9 -8 -17 -8 -23c0 -28 47 -38 47 -82c0 -28 -27 -47 -59 -47c-12 0 -25 3 -38 9v29
c11 -6 20 -8 29 -8c17 0 30 8 30 22c0 28 -42 36 -42 74c0 6 2 16 6 25c-48 8 -82 47 -82 98z" />
    <glyph glyph-name="Ccircumflex" unicode="&#x108;" 
d="M35 89v522c0 57 42 99 99 99s99 -42 99 -99v-123h-38v123c0 36 -26 62 -61 62s-61 -26 -61 -62v-522c0 -36 26 -62 61 -62s61 26 61 62v124h38v-124c0 -57 -42 -99 -99 -99s-99 42 -99 99zM157 855l68 -115h-37l-55 95l-55 -95h-37l69 115h47z" />
    <glyph glyph-name="Cdotaccent" unicode="&#x10a;" 
d="M108 793c0 15 11 25 25 25c15 0 25 -10 25 -25c0 -14 -10 -25 -25 -25c-14 0 -25 11 -25 25zM35 89v522c0 57 42 99 99 99s99 -42 99 -99v-123h-38v123c0 36 -26 62 -61 62s-61 -26 -61 -62v-522c0 -36 26 -62 61 -62s61 26 61 62v124h38v-124c0 -57 -42 -99 -99 -99
s-99 42 -99 99z" />
    <glyph glyph-name="Dcaron" unicode="&#x10e;" 
d="M100 740l-69 115h37l55 -95l55 95h37l-68 -115h-47zM35 0v700h99c57 0 99 -42 99 -99v-502c0 -57 -42 -99 -99 -99h-99zM73 37h61c35 0 61 26 61 62v502c0 36 -26 62 -61 62h-61v-626z" />
    <glyph glyph-name="Dcroat" unicode="&#x110;" 
d="M0 335v31h35v334h99c57 0 99 -42 99 -99v-502c0 -57 -42 -99 -99 -99h-99v335h-35zM73 37h61c35 0 61 26 61 62v502c0 36 -26 62 -61 62h-61v-297h51v-31h-51v-298z" />
    <glyph glyph-name="Eacute" unicode="&#xc9;" horiz-adv-x="225" 
d="M80 740l63 115h42l-71 -115h-34zM35 0v700h173v-37h-135v-294h115v-37h-115v-295h135v-37h-173z" />
    <glyph glyph-name="Ebreve" unicode="&#x114;" horiz-adv-x="225" 
d="M165 855h32c0 -67 -17 -120 -84 -120c-68 0 -85 53 -85 120h33c0 -50 9 -90 52 -90c42 0 52 40 52 90zM35 0v700h173v-37h-135v-294h115v-37h-115v-295h135v-37h-173z" />
    <glyph glyph-name="Ecaron" unicode="&#x11a;" horiz-adv-x="225" 
d="M89 740l-69 115h37l55 -95l55 95h37l-68 -115h-47zM35 0v700h173v-37h-135v-294h115v-37h-115v-295h135v-37h-173z" />
    <glyph glyph-name="Ecircumflex" unicode="&#xca;" horiz-adv-x="225" 
d="M35 0v700h173v-37h-135v-294h115v-37h-115v-295h135v-37h-173zM136 855l68 -115h-37l-55 95l-55 -95h-37l69 115h47z" />
    <glyph glyph-name="Edieresis" unicode="&#xcb;" horiz-adv-x="225" 
d="M33 793c0 14 10 25 24 25s25 -11 25 -25s-11 -24 -25 -24s-24 10 -24 24zM144 793c0 14 10 25 24 25s24 -11 24 -25s-10 -24 -24 -24s-24 10 -24 24zM35 0v700h173v-37h-135v-294h115v-37h-115v-295h135v-37h-173z" />
    <glyph glyph-name="Edotaccent" unicode="&#x116;" horiz-adv-x="225" 
d="M87 793c0 15 11 25 25 25c15 0 25 -10 25 -25c0 -14 -10 -25 -25 -25c-14 0 -25 11 -25 25zM35 0v700h173v-37h-135v-294h115v-37h-115v-295h135v-37h-173z" />
    <glyph glyph-name="Egrave" unicode="&#xc8;" horiz-adv-x="225" 
d="M111 740l-71 115h42l63 -115h-34zM35 0v700h173v-37h-135v-294h115v-37h-115v-295h135v-37h-173z" />
    <glyph glyph-name="Emacron" unicode="&#x112;" horiz-adv-x="225" 
d="M35 777v32h155v-32h-155zM35 0v700h173v-37h-135v-294h115v-37h-115v-295h135v-37h-173z" />
    <glyph glyph-name="Eogonek" unicode="&#x118;" horiz-adv-x="225" 
d="M35 0v700h173v-37h-135v-294h115v-37h-115v-295h135v-37h-24c-38 -59 -42 -131 2 -131c6 0 14 2 22 5v-27c-10 -5 -22 -7 -32 -7c-64 0 -73 83 -24 160h-117z" />
    <glyph glyph-name="Eacute.salt" 
d="M105 740l63 115h42l-71 -115h-34zM233 488h-38v123c0 36 -26 62 -61 62s-61 -26 -61 -62v-180c0 -36 26 -62 61 -62h79v-37h-79c-35 0 -61 -26 -61 -62v-181c0 -36 26 -62 61 -62s61 26 61 62v124h38v-124c0 -57 -42 -99 -99 -99s-99 42 -99 99v176c0 38 18 69 47 85
c-29 17 -47 48 -47 86v175c0 57 42 99 99 99s99 -42 99 -99v-123z" />
    <glyph glyph-name="Ebreve.salt" 
d="M186 855h32c0 -67 -17 -120 -84 -120c-68 0 -85 53 -85 120h33c0 -50 9 -90 52 -90c42 0 52 40 52 90zM233 488h-38v123c0 36 -26 62 -61 62s-61 -26 -61 -62v-180c0 -36 26 -62 61 -62h79v-37h-79c-35 0 -61 -26 -61 -62v-181c0 -36 26 -62 61 -62s61 26 61 62v124h38
v-124c0 -57 -42 -99 -99 -99s-99 42 -99 99v176c0 38 18 69 47 85c-29 17 -47 48 -47 86v175c0 57 42 99 99 99s99 -42 99 -99v-123z" />
    <glyph glyph-name="Ecaron.salt" 
d="M110 740l-69 115h37l55 -95l55 95h37l-68 -115h-47zM233 488h-38v123c0 36 -26 62 -61 62s-61 -26 -61 -62v-180c0 -36 26 -62 61 -62h79v-37h-79c-35 0 -61 -26 -61 -62v-181c0 -36 26 -62 61 -62s61 26 61 62v124h38v-124c0 -57 -42 -99 -99 -99s-99 42 -99 99v176
c0 38 18 69 47 85c-29 17 -47 48 -47 86v175c0 57 42 99 99 99s99 -42 99 -99v-123z" />
    <glyph glyph-name="Ecircumflex.salt" 
d="M157 855l68 -115h-37l-55 95l-55 -95h-37l69 115h47zM233 488h-38v123c0 36 -26 62 -61 62s-61 -26 -61 -62v-180c0 -36 26 -62 61 -62h79v-37h-79c-35 0 -61 -26 -61 -62v-181c0 -36 26 -62 61 -62s61 26 61 62v124h38v-124c0 -57 -42 -99 -99 -99s-99 42 -99 99v176
c0 38 18 69 47 85c-29 17 -47 48 -47 86v175c0 57 42 99 99 99s99 -42 99 -99v-123z" />
    <glyph glyph-name="Edieresis.salt" 
d="M54 793c0 14 10 25 24 25s25 -11 25 -25s-11 -24 -25 -24s-24 10 -24 24zM165 793c0 14 10 25 24 25s24 -11 24 -25s-10 -24 -24 -24s-24 10 -24 24zM233 488h-38v123c0 36 -26 62 -61 62s-61 -26 -61 -62v-180c0 -36 26 -62 61 -62h79v-37h-79c-35 0 -61 -26 -61 -62
v-181c0 -36 26 -62 61 -62s61 26 61 62v124h38v-124c0 -57 -42 -99 -99 -99s-99 42 -99 99v176c0 38 18 69 47 85c-29 17 -47 48 -47 86v175c0 57 42 99 99 99s99 -42 99 -99v-123z" />
    <glyph glyph-name="Edotaccent.salt" 
d="M108 793c0 15 11 25 25 25c15 0 25 -10 25 -25c0 -14 -10 -25 -25 -25c-14 0 -25 11 -25 25zM233 488h-38v123c0 36 -26 62 -61 62s-61 -26 -61 -62v-180c0 -36 26 -62 61 -62h79v-37h-79c-35 0 -61 -26 -61 -62v-181c0 -36 26 -62 61 -62s61 26 61 62v124h38v-124
c0 -57 -42 -99 -99 -99s-99 42 -99 99v176c0 38 18 69 47 85c-29 17 -47 48 -47 86v175c0 57 42 99 99 99s99 -42 99 -99v-123z" />
    <glyph glyph-name="Egrave.salt" 
d="M128 740l-71 115h42l63 -115h-34zM233 488h-38v123c0 36 -26 62 -61 62s-61 -26 -61 -62v-180c0 -36 26 -62 61 -62h79v-37h-79c-35 0 -61 -26 -61 -62v-181c0 -36 26 -62 61 -62s61 26 61 62v124h38v-124c0 -57 -42 -99 -99 -99s-99 42 -99 99v176c0 38 18 69 47 85
c-29 17 -47 48 -47 86v175c0 57 42 99 99 99s99 -42 99 -99v-123z" />
    <glyph glyph-name="Emacron.salt" 
d="M56 777v32h155v-32h-155zM233 488h-38v123c0 36 -26 62 -61 62s-61 -26 -61 -62v-180c0 -36 26 -62 61 -62h79v-37h-79c-35 0 -61 -26 -61 -62v-181c0 -36 26 -62 61 -62s61 26 61 62v124h38v-124c0 -57 -42 -99 -99 -99s-99 42 -99 99v176c0 38 18 69 47 85
c-29 17 -47 48 -47 86v175c0 57 42 99 99 99s99 -42 99 -99v-123z" />
    <glyph glyph-name="Eogonek.salt" 
d="M233 488h-38v123c0 36 -26 62 -61 62s-61 -26 -61 -62v-180c0 -36 26 -62 61 -62h79v-37h-79c-35 0 -61 -26 -61 -62v-181c0 -36 26 -62 61 -62s61 26 61 62v124h38v-124c0 -33 -14 -61 -37 -79c-39 -72 -41 -141 3 -141c7 0 14 2 22 5v-27c-10 -5 -21 -7 -31 -7
c-62 0 -74 74 -34 152c-7 -1 -14 -2 -22 -2c-57 0 -99 42 -99 99v176c0 38 18 69 47 85c-29 17 -47 48 -47 86v175c0 57 42 99 99 99s99 -42 99 -99v-123z" />
    <glyph glyph-name="Gbreve" unicode="&#x11e;" 
d="M186 855h32c0 -67 -17 -120 -84 -120c-68 0 -85 53 -85 120h33c0 -50 9 -90 52 -90c42 0 52 40 52 90zM35 89v522c0 57 42 99 99 99s99 -42 99 -99v-123h-38v123c0 36 -26 62 -61 62s-61 -26 -61 -62v-522c0 -36 26 -62 61 -62s61 26 61 62v237h-61v37h99v-274
c0 -57 -42 -99 -99 -99s-99 42 -99 99z" />
    <glyph glyph-name="Gcircumflex" unicode="&#x11c;" 
d="M35 89v522c0 57 42 99 99 99s99 -42 99 -99v-123h-38v123c0 36 -26 62 -61 62s-61 -26 -61 -62v-522c0 -36 26 -62 61 -62s61 26 61 62v237h-61v37h99v-274c0 -57 -42 -99 -99 -99s-99 42 -99 99zM157 855l68 -115h-37l-55 95l-55 -95h-37l69 115h47z" />
    <glyph glyph-name="Gcommaaccent" unicode="&#x122;" 
d="M106 -150l18 102h38l-24 -102h-32zM35 89v522c0 57 42 99 99 99s99 -42 99 -99v-123h-38v123c0 36 -26 62 -61 62s-61 -26 -61 -62v-522c0 -36 26 -62 61 -62s61 26 61 62v237h-61v37h99v-274c0 -57 -42 -99 -99 -99s-99 42 -99 99z" />
    <glyph glyph-name="Gdotaccent" unicode="&#x120;" 
d="M108 793c0 15 11 25 25 25c15 0 25 -10 25 -25c0 -14 -10 -25 -25 -25c-14 0 -25 11 -25 25zM35 89v522c0 57 42 99 99 99s99 -42 99 -99v-123h-38v123c0 36 -26 62 -61 62s-61 -26 -61 -62v-522c0 -36 26 -62 61 -62s61 26 61 62v237h-61v37h99v-274
c0 -57 -42 -99 -99 -99s-99 42 -99 99z" />
    <glyph glyph-name="Hbar" unicode="&#x126;" 
d="M0 519v31h35v150h38v-150h122v150h38v-150h35v-31h-35v-519h-38v332h-122v-332h-38v519h-35zM73 369h122v150h-122v-150z" />
    <glyph glyph-name="Hcircumflex" unicode="&#x124;" 
d="M35 0v700h38v-331h122v331h38v-700h-38v332h-122v-332h-38zM157 855l68 -115h-37l-55 95l-55 -95h-37l69 115h47z" />
    <glyph glyph-name="Iacute" unicode="&#xcd;" horiz-adv-x="108" 
d="M35 0v700h38v-700h-38zM31 740l63 115h42l-71 -115h-34z" />
    <glyph glyph-name="Ibreve" unicode="&#x12c;" horiz-adv-x="108" 
d="M35 0v700h38v-700h-38zM107 855h32c0 -67 -17 -120 -84 -120c-68 0 -85 53 -85 120h33c0 -50 9 -90 52 -90c42 0 52 40 52 90z" />
    <glyph glyph-name="Icircumflex" unicode="&#xce;" horiz-adv-x="108" 
d="M35 0v700h38v-700h-38zM78 855l68 -115h-37l-55 95l-55 -95h-37l69 115h47z" />
    <glyph glyph-name="Idieresis" unicode="&#xcf;" horiz-adv-x="108" 
d="M35 0v700h38v-700h-38zM-25 793c0 14 10 25 24 25s25 -11 25 -25s-11 -24 -25 -24s-24 10 -24 24zM86 793c0 14 10 25 24 25s24 -11 24 -25s-10 -24 -24 -24s-24 10 -24 24z" />
    <glyph glyph-name="Idotaccent" unicode="&#x130;" horiz-adv-x="108" 
d="M35 0v700h38v-700h-38zM28 793c0 15 11 25 25 25c15 0 25 -10 25 -25c0 -14 -10 -25 -25 -25c-14 0 -25 11 -25 25z" />
    <glyph glyph-name="Igrave" unicode="&#xcc;" horiz-adv-x="108" 
d="M35 0v700h38v-700h-38zM43 740l-71 115h42l63 -115h-34z" />
    <glyph glyph-name="Imacron" unicode="&#x12a;" horiz-adv-x="108" 
d="M35 0v700h38v-700h-38zM-23 777v32h155v-32h-155z" />
    <glyph glyph-name="Iogonek" unicode="&#x12e;" horiz-adv-x="108" 
d="M35 0v700h38v-700c-38 -59 -42 -131 2 -131c6 0 14 2 22 5v-27c-10 -5 -22 -7 -32 -7c-64 0 -72 83 -24 160h-6z" />
    <glyph glyph-name="Itilde" unicode="&#x128;" horiz-adv-x="108" 
d="M35 0v700h38v-700h-38zM-55 788c23 43 45 58 67 58c44 0 59 -58 86 -58c13 0 26 12 43 41l23 -14c-23 -43 -45 -58 -67 -58c-44 0 -59 58 -86 58c-14 0 -27 -12 -44 -42z" />
    <glyph glyph-name="Iacute.salt" 
d="M101 740l63 115h42l-71 -115h-34zM35 0v37h80v626h-80v37h198v-37h-80v-626h80v-37h-198z" />
    <glyph glyph-name="Ibreve.salt" 
d="M186 855h32c0 -67 -17 -120 -84 -120c-68 0 -85 53 -85 120h33c0 -50 9 -90 52 -90c42 0 52 40 52 90zM35 0v37h80v626h-80v37h198v-37h-80v-626h80v-37h-198z" />
    <glyph glyph-name="Icircumflex.salt" 
d="M35 0v37h80v626h-80v37h198v-37h-80v-626h80v-37h-198zM157 855l68 -115h-37l-55 95l-55 -95h-37l69 115h47z" />
    <glyph glyph-name="Idieresis.salt" 
d="M54 793c0 14 10 25 24 25s25 -11 25 -25s-11 -24 -25 -24s-24 10 -24 24zM165 793c0 14 10 25 24 25s24 -11 24 -25s-10 -24 -24 -24s-24 10 -24 24zM35 0v37h80v626h-80v37h198v-37h-80v-626h80v-37h-198z" />
    <glyph glyph-name="Idotaccent.salt" 
d="M108 793c0 15 11 25 25 25c15 0 25 -10 25 -25c0 -14 -10 -25 -25 -25c-14 0 -25 11 -25 25zM35 0v37h80v626h-80v37h198v-37h-80v-626h80v-37h-198z" />
    <glyph glyph-name="Igrave.salt" 
d="M125 740l-71 115h42l63 -115h-34zM35 0v37h80v626h-80v37h198v-37h-80v-626h80v-37h-198z" />
    <glyph glyph-name="Imacron.salt" 
d="M56 777v32h155v-32h-155zM35 0v37h80v626h-80v37h198v-37h-80v-626h80v-37h-198z" />
    <glyph glyph-name="Iogonek.salt" 
d="M35 0v37h80v626h-80v37h198v-37h-80v-626h80v-37h-82c-38 -59 -42 -131 2 -131c6 0 14 2 22 5v-27c-10 -5 -22 -7 -32 -7c-64 0 -73 83 -24 160h-84z" />
    <glyph glyph-name="Itilde.salt" 
d="M24 788c23 43 45 58 67 58c44 0 59 -58 86 -58c13 0 26 12 43 41l23 -14c-23 -43 -45 -58 -67 -58c-44 0 -59 58 -86 58c-14 0 -27 -12 -44 -42zM35 0v37h80v626h-80v37h198v-37h-80v-626h80v-37h-198z" />
    <glyph glyph-name="Jcircumflex" unicode="&#x134;" horiz-adv-x="238" 
d="M20 213h38v-124c0 -36 26 -62 61 -62s61 26 61 62v611h38v-611c0 -57 -42 -99 -99 -99s-99 42 -99 99v124zM222 855l68 -115h-37l-55 95l-55 -95h-37l69 115h47z" />
    <glyph glyph-name="Kcommaaccent" unicode="&#x136;" 
d="M98 -150l18 102h38l-24 -102h-32zM35 0v700h38v-338l141 338h38l-144 -347l145 -353h-39l-141 338v-338h-38z" />
    <glyph glyph-name="Lacute" unicode="&#x139;" horiz-adv-x="215" 
d="M31 740l63 115h42l-71 -115h-34zM35 0v700h38v-663h125v-37h-163z" />
    <glyph glyph-name="Lcaron" unicode="&#x13d;" horiz-adv-x="215" 
d="M100 590l24 150h38l-34 -150h-28zM35 0v700h38v-663h125v-37h-163z" />
    <glyph glyph-name="Lcommaaccent" unicode="&#x13b;" horiz-adv-x="215" 
d="M69 -150l18 102h38l-24 -102h-32zM35 0v700h38v-663h125v-37h-163z" />
    <glyph glyph-name="Ldot" unicode="&#x13f;" horiz-adv-x="235" 
d="M35 0v700h38v-663h125v-37h-163zM142 350c0 16 12 28 28 28s28 -12 28 -28s-12 -28 -28 -28s-28 12 -28 28z" />
    <glyph glyph-name="Lslash" unicode="&#x141;" horiz-adv-x="228" 
d="M8 277v40l39 25v358h38v-334l90 58v-40l-90 -58v-289h125v-37h-163v302z" />
    <glyph glyph-name="Nacute" unicode="&#x143;" horiz-adv-x="278" 
d="M106 740l63 115h42l-71 -115h-34zM35 0v700h37l136 -576v576h35v-700h-37l-136 576v-576h-35z" />
    <glyph glyph-name="Ncaron" unicode="&#x147;" horiz-adv-x="278" 
d="M115 740l-69 115h37l55 -95l55 95h37l-68 -115h-47zM35 0v700h37l136 -576v576h35v-700h-37l-136 576v-576h-35z" />
    <glyph glyph-name="Ncommaaccent" unicode="&#x145;" horiz-adv-x="278" 
d="M103 -150l18 102h38l-24 -102h-32zM35 0v700h37l136 -576v576h35v-700h-37l-136 576v-576h-35z" />
    <glyph glyph-name="Ntilde" unicode="&#xd1;" horiz-adv-x="278" 
d="M29 788c23 43 45 58 67 58c44 0 59 -58 86 -58c13 0 26 12 43 41l23 -14c-23 -43 -45 -58 -67 -58c-44 0 -59 58 -86 58c-14 0 -27 -12 -44 -42zM35 0v700h37l136 -576v576h35v-700h-37l-136 576v-576h-35z" />
    <glyph glyph-name="Oacute" unicode="&#xd3;" 
d="M104 740l63 115h42l-71 -115h-34zM35 89v522c0 57 42 99 99 99s99 -42 99 -99v-522c0 -57 -42 -99 -99 -99s-99 42 -99 99zM73 89c0 -36 26 -62 61 -62s61 26 61 62v522c0 36 -26 62 -61 62s-61 -26 -61 -62v-522z" />
    <glyph glyph-name="Obreve" unicode="&#x14e;" 
d="M186 855h32c0 -67 -17 -120 -84 -120c-68 0 -85 53 -85 120h33c0 -50 9 -90 52 -90c42 0 52 40 52 90zM35 89v522c0 57 42 99 99 99s99 -42 99 -99v-522c0 -57 -42 -99 -99 -99s-99 42 -99 99zM73 89c0 -36 26 -62 61 -62s61 26 61 62v522c0 36 -26 62 -61 62
s-61 -26 -61 -62v-522z" />
    <glyph glyph-name="Ocircumflex" unicode="&#xd4;" 
d="M35 89v522c0 57 42 99 99 99s99 -42 99 -99v-522c0 -57 -42 -99 -99 -99s-99 42 -99 99zM73 89c0 -36 26 -62 61 -62s61 26 61 62v522c0 36 -26 62 -61 62s-61 -26 -61 -62v-522zM157 855l68 -115h-37l-55 95l-55 -95h-37l69 115h47z" />
    <glyph glyph-name="Odieresis" unicode="&#xd6;" 
d="M54 793c0 14 10 25 24 25s25 -11 25 -25s-11 -24 -25 -24s-24 10 -24 24zM165 793c0 14 10 25 24 25s24 -11 24 -25s-10 -24 -24 -24s-24 10 -24 24zM35 89v522c0 57 42 99 99 99s99 -42 99 -99v-522c0 -57 -42 -99 -99 -99s-99 42 -99 99zM73 89c0 -36 26 -62 61 -62
s61 26 61 62v522c0 36 -26 62 -61 62s-61 -26 -61 -62v-522z" />
    <glyph glyph-name="Ograve" unicode="&#xd2;" 
d="M130 740l-71 115h42l63 -115h-34zM35 89v522c0 57 42 99 99 99s99 -42 99 -99v-522c0 -57 -42 -99 -99 -99s-99 42 -99 99zM73 89c0 -36 26 -62 61 -62s61 26 61 62v522c0 36 -26 62 -61 62s-61 -26 -61 -62v-522z" />
    <glyph glyph-name="Ohungarumlaut" unicode="&#x150;" 
d="M35 89v522c0 57 42 99 99 99s99 -42 99 -99v-522c0 -57 -42 -99 -99 -99s-99 42 -99 99zM73 89c0 -36 26 -62 61 -62s61 26 61 62v522c0 36 -26 62 -61 62s-61 -26 -61 -62v-522zM57 740l63 115h42l-71 -115h-34zM150 740l63 115h42l-71 -115h-34z" />
    <glyph glyph-name="Omacron" unicode="&#x14c;" 
d="M56 777v32h155v-32h-155zM35 89v522c0 57 42 99 99 99s99 -42 99 -99v-522c0 -57 -42 -99 -99 -99s-99 42 -99 99zM73 89c0 -36 26 -62 61 -62s61 26 61 62v522c0 36 -26 62 -61 62s-61 -26 -61 -62v-522z" />
    <glyph glyph-name="Otilde" unicode="&#xd5;" 
d="M24 788c23 43 45 58 67 58c44 0 59 -58 86 -58c13 0 26 12 43 41l23 -14c-23 -43 -45 -58 -67 -58c-44 0 -59 58 -86 58c-14 0 -27 -12 -44 -42zM35 89v522c0 57 42 99 99 99s99 -42 99 -99v-522c0 -57 -42 -99 -99 -99s-99 42 -99 99zM73 89c0 -36 26 -62 61 -62
s61 26 61 62v522c0 36 -26 62 -61 62s-61 -26 -61 -62v-522z" />
    <glyph glyph-name="Racute" unicode="&#x154;" 
d="M35 0v700h99c57 0 99 -42 99 -99v-173c0 -38 -18 -69 -47 -86c29 -16 47 -47 47 -85v-257h-38v262c0 36 -26 62 -61 62h-61v-324h-38zM73 361h61c35 0 61 26 61 62v178c0 36 -26 62 -61 62h-61v-302zM81 740l63 115h42l-71 -115h-34z" />
    <glyph glyph-name="Rcaron" unicode="&#x158;" 
d="M100 740l-69 115h37l55 -95l55 95h37l-68 -115h-47zM35 0v700h99c57 0 99 -42 99 -99v-173c0 -38 -18 -69 -47 -86c29 -16 47 -47 47 -85v-257h-38v262c0 36 -26 62 -61 62h-61v-324h-38zM73 361h61c35 0 61 26 61 62v178c0 36 -26 62 -61 62h-61v-302z" />
    <glyph glyph-name="Rcommaaccent" unicode="&#x156;" 
d="M106 -150l18 102h38l-24 -102h-32zM35 0v700h99c57 0 99 -42 99 -99v-173c0 -38 -18 -69 -47 -86c29 -16 47 -47 47 -85v-257h-38v262c0 36 -26 62 -61 62h-61v-324h-38zM73 361h61c35 0 61 26 61 62v178c0 36 -26 62 -61 62h-61v-302z" />
    <glyph glyph-name="Sacute" unicode="&#x15a;" 
d="M35 213h38v-124c0 -36 26 -62 61 -62s61 26 61 62v106c0 109 -160 179 -160 311v105c0 57 42 99 99 99s99 -42 99 -99v-123h-38v123c0 36 -26 62 -61 62s-61 -26 -61 -62v-105c0 -109 160 -179 160 -311v-106c0 -57 -42 -99 -99 -99s-99 42 -99 99v124zM104 740l63 115
h42l-71 -115h-34z" />
    <glyph glyph-name="Scaron" unicode="&#x160;" 
d="M35 213h38v-124c0 -36 26 -62 61 -62s61 26 61 62v106c0 109 -160 179 -160 311v105c0 57 42 99 99 99s99 -42 99 -99v-123h-38v123c0 36 -26 62 -61 62s-61 -26 -61 -62v-105c0 -109 160 -179 160 -311v-106c0 -57 -42 -99 -99 -99s-99 42 -99 99v124zM110 740l-69 115
h37l55 -95l55 95h37l-68 -115h-47z" />
    <glyph glyph-name="Scedilla" unicode="&#x15e;" 
d="M35 213h38v-124c0 -36 26 -62 61 -62s61 26 61 62v106c0 109 -160 179 -160 311v105c0 57 42 99 99 99s99 -42 99 -99v-123h-38v123c0 36 -26 62 -61 62s-61 -26 -61 -62v-105c0 -109 160 -179 160 -311v-106c0 -51 -33 -89 -81 -97c-6 -9 -8 -17 -8 -23
c0 -28 47 -38 47 -82c0 -28 -27 -47 -59 -47c-12 0 -25 3 -38 9v29c11 -6 20 -8 29 -8c17 0 30 8 30 22c0 28 -42 36 -42 74c0 6 2 16 6 25c-48 8 -82 47 -82 98v124z" />
    <glyph glyph-name="Scircumflex" unicode="&#x15c;" 
d="M35 213h38v-124c0 -36 26 -62 61 -62s61 26 61 62v106c0 109 -160 179 -160 311v105c0 57 42 99 99 99s99 -42 99 -99v-123h-38v123c0 36 -26 62 -61 62s-61 -26 -61 -62v-105c0 -109 160 -179 160 -311v-106c0 -57 -42 -99 -99 -99s-99 42 -99 99v124zM157 855l68 -115
h-37l-55 95l-55 -95h-37l69 115h47z" />
    <glyph glyph-name="uni0218" unicode="&#x218;" 
d="M106 -150l18 102h38l-24 -102h-32zM35 213h38v-124c0 -36 26 -62 61 -62s61 26 61 62v106c0 109 -160 179 -160 311v105c0 57 42 99 99 99s99 -42 99 -99v-123h-38v123c0 36 -26 62 -61 62s-61 -26 -61 -62v-105c0 -109 160 -179 160 -311v-106c0 -57 -42 -99 -99 -99
s-99 42 -99 99v124z" />
    <glyph glyph-name="Tbar" unicode="&#x166;" horiz-adv-x="248" 
d="M46 335v32h59v296h-96v37h230v-37h-96v-296h58v-32h-58v-335h-38v335h-59z" />
    <glyph glyph-name="Tcaron" unicode="&#x164;" horiz-adv-x="248" 
d="M100 740l-69 115h37l55 -95l55 95h37l-68 -115h-47zM105 0v663h-96v37h230v-37h-96v-663h-38z" />
    <glyph glyph-name="uni0162" unicode="&#x162;" horiz-adv-x="248" 
d="M105 0v663h-96v37h230v-37h-96v-663c-7 -10 -10 -18 -10 -24c0 -28 47 -45 47 -89c0 -28 -27 -47 -59 -47c-12 0 -25 3 -38 9v29c11 -6 20 -8 29 -8c17 0 30 8 30 22c0 28 -42 43 -42 81c0 7 2 18 7 27h-2z" />
    <glyph glyph-name="uni021A" unicode="&#x21a;" horiz-adv-x="248" 
d="M91 -150l18 102h38l-24 -102h-32zM105 0v663h-96v37h230v-37h-96v-663h-38z" />
    <glyph glyph-name="Uacute" unicode="&#xda;" 
d="M104 740l63 115h42l-71 -115h-34zM35 700h38v-611c0 -36 26 -62 61 -62s61 26 61 62v611h38v-611c0 -57 -42 -99 -99 -99s-99 42 -99 99v611z" />
    <glyph glyph-name="Ubreve" unicode="&#x16c;" 
d="M186 855h32c0 -67 -17 -120 -84 -120c-68 0 -85 53 -85 120h33c0 -50 9 -90 52 -90c42 0 52 40 52 90zM35 700h38v-611c0 -36 26 -62 61 -62s61 26 61 62v611h38v-611c0 -57 -42 -99 -99 -99s-99 42 -99 99v611z" />
    <glyph glyph-name="Ucircumflex" unicode="&#xdb;" 
d="M35 700h38v-611c0 -36 26 -62 61 -62s61 26 61 62v611h38v-611c0 -57 -42 -99 -99 -99s-99 42 -99 99v611zM157 855l68 -115h-37l-55 95l-55 -95h-37l69 115h47z" />
    <glyph glyph-name="Udieresis" unicode="&#xdc;" 
d="M54 793c0 14 10 25 24 25s25 -11 25 -25s-11 -24 -25 -24s-24 10 -24 24zM165 793c0 14 10 25 24 25s24 -11 24 -25s-10 -24 -24 -24s-24 10 -24 24zM35 700h38v-611c0 -36 26 -62 61 -62s61 26 61 62v611h38v-611c0 -57 -42 -99 -99 -99s-99 42 -99 99v611z" />
    <glyph glyph-name="Ugrave" unicode="&#xd9;" 
d="M130 740l-71 115h42l63 -115h-34zM35 700h38v-611c0 -36 26 -62 61 -62s61 26 61 62v611h38v-611c0 -57 -42 -99 -99 -99s-99 42 -99 99v611z" />
    <glyph glyph-name="Uhungarumlaut" unicode="&#x170;" 
d="M35 700h38v-611c0 -36 26 -62 61 -62s61 26 61 62v611h38v-611c0 -57 -42 -99 -99 -99s-99 42 -99 99v611zM60 740l63 115h42l-71 -115h-34zM153 740l63 115h42l-71 -115h-34z" />
    <glyph glyph-name="Umacron" unicode="&#x16a;" 
d="M56 777v32h155v-32h-155zM35 700h38v-611c0 -36 26 -62 61 -62s61 26 61 62v611h38v-611c0 -57 -42 -99 -99 -99s-99 42 -99 99v611z" />
    <glyph glyph-name="Uogonek" unicode="&#x172;" 
d="M35 700h38v-611c0 -36 26 -62 61 -62s61 26 61 62v611h38v-611c0 -47 -28 -84 -70 -95c-33 -62 -33 -125 9 -125c7 0 14 2 22 5v-27c-10 -5 -21 -7 -31 -7c-62 0 -74 77 -32 150c-56 2 -96 43 -96 99v611z" />
    <glyph glyph-name="Uring" unicode="&#x16e;" 
d="M35 700h38v-611c0 -36 26 -62 61 -62s61 26 61 62v611h38v-611c0 -57 -42 -99 -99 -99s-99 42 -99 99v611zM62 798c0 41 30 71 72 71c41 0 71 -30 71 -71s-30 -71 -71 -71c-42 0 -72 30 -72 71zM93 798c0 -26 18 -44 41 -44s40 18 40 44c0 25 -17 43 -40 43
s-41 -18 -41 -43z" />
    <glyph glyph-name="Utilde" unicode="&#x168;" 
d="M24 788c23 43 45 58 67 58c44 0 59 -58 86 -58c13 0 26 12 43 41l23 -14c-23 -43 -45 -58 -67 -58c-44 0 -59 58 -86 58c-14 0 -27 -12 -44 -42zM35 700h38v-611c0 -36 26 -62 61 -62s61 26 61 62v611h38v-611c0 -57 -42 -99 -99 -99s-99 42 -99 99v611z" />
    <glyph glyph-name="Wacute" unicode="&#x1e82;" horiz-adv-x="390" 
d="M165 740l63 115h42l-71 -115h-34zM132 700h35l28 -214l29 214h35l-46 -311l43 -292l89 603h38l-108 -700h-35l-45 298l-45 -298h-35l-107 700h37l90 -603l42 288z" />
    <glyph glyph-name="Wcircumflex" unicode="&#x174;" horiz-adv-x="390" 
d="M132 700h35l28 -214l29 214h35l-46 -311l43 -292l89 603h38l-108 -700h-35l-45 298l-45 -298h-35l-107 700h37l90 -603l42 288zM219 855l68 -115h-37l-55 95l-55 -95h-37l69 115h47z" />
    <glyph glyph-name="Wdieresis" unicode="&#x1e84;" horiz-adv-x="390" 
d="M113 793c0 14 10 25 24 25s25 -11 25 -25s-11 -24 -25 -24s-24 10 -24 24zM224 793c0 14 10 25 24 25s24 -11 24 -25s-10 -24 -24 -24s-24 10 -24 24zM132 700h35l28 -214l29 214h35l-46 -311l43 -292l89 603h38l-108 -700h-35l-45 298l-45 -298h-35l-107 700h37l90 -603
l42 288z" />
    <glyph glyph-name="Wgrave" unicode="&#x1e80;" horiz-adv-x="390" 
d="M191 740l-71 115h42l63 -115h-34zM132 700h35l28 -214l29 214h35l-46 -311l43 -292l89 603h38l-108 -700h-35l-45 298l-45 -298h-35l-107 700h37l90 -603l42 288z" />
    <glyph glyph-name="Yacute" unicode="&#xdd;" 
d="M115 0v276l-107 424h37l89 -355l88 355h38l-107 -424v-276h-38zM104 740l63 115h42l-71 -115h-34z" />
    <glyph glyph-name="Ycircumflex" unicode="&#x176;" 
d="M115 0v276l-107 424h37l89 -355l88 355h38l-107 -424v-276h-38zM157 855l68 -115h-37l-55 95l-55 -95h-37l69 115h47z" />
    <glyph glyph-name="Ydieresis" unicode="&#x178;" 
d="M115 0v276l-107 424h37l89 -355l88 355h38l-107 -424v-276h-38zM54 793c0 14 10 25 24 25s25 -11 25 -25s-11 -24 -25 -24s-24 10 -24 24zM165 793c0 14 10 25 24 25s24 -11 24 -25s-10 -24 -24 -24s-24 10 -24 24z" />
    <glyph glyph-name="Ygrave" unicode="&#x1ef2;" 
d="M115 0v276l-107 424h37l89 -355l88 355h38l-107 -424v-276h-38zM130 740l-71 115h42l63 -115h-34z" />
    <glyph glyph-name="Yacute.salt" 
d="M233 700v-611c0 -57 -42 -99 -99 -99s-99 42 -99 99v124h38v-124c0 -36 26 -62 61 -62s61 26 61 62v250c-13 -16 -35 -32 -68 -32c-53 0 -92 42 -92 99v294h38v-294c0 -36 26 -62 61 -62s61 26 61 62v294h38zM104 740l63 115h42l-71 -115h-34z" />
    <glyph glyph-name="Ycircumflex.salt" 
d="M233 700v-611c0 -57 -42 -99 -99 -99s-99 42 -99 99v124h38v-124c0 -36 26 -62 61 -62s61 26 61 62v250c-13 -16 -35 -32 -68 -32c-53 0 -92 42 -92 99v294h38v-294c0 -36 26 -62 61 -62s61 26 61 62v294h38zM157 855l68 -115h-37l-55 95l-55 -95h-37l69 115h47z" />
    <glyph glyph-name="Ydieresis.salt" 
d="M54 793c0 14 10 25 24 25s25 -11 25 -25s-11 -24 -25 -24s-24 10 -24 24zM165 793c0 14 10 25 24 25s24 -11 24 -25s-10 -24 -24 -24s-24 10 -24 24zM233 700v-611c0 -57 -42 -99 -99 -99s-99 42 -99 99v124h38v-124c0 -36 26 -62 61 -62s61 26 61 62v250
c-13 -16 -35 -32 -68 -32c-53 0 -92 42 -92 99v294h38v-294c0 -36 26 -62 61 -62s61 26 61 62v294h38z" />
    <glyph glyph-name="Ygrave.salt" 
d="M130 740l-71 115h42l63 -115h-34zM233 700v-611c0 -57 -42 -99 -99 -99s-99 42 -99 99v124h38v-124c0 -36 26 -62 61 -62s61 26 61 62v250c-13 -16 -35 -32 -68 -32c-53 0 -92 42 -92 99v294h38v-294c0 -36 26 -62 61 -62s61 26 61 62v294h38z" />
    <glyph glyph-name="Zacute" unicode="&#x179;" horiz-adv-x="223" 
d="M18 0v37l148 626h-148v37h187v-37l-148 -626h148v-37h-187zM79 740l63 115h42l-71 -115h-34z" />
    <glyph glyph-name="Zcaron" unicode="&#x17d;" horiz-adv-x="223" 
d="M89 740l-69 115h37l55 -95l55 95h37l-68 -115h-47zM18 0v37l148 626h-148v37h187v-37l-148 -626h148v-37h-187z" />
    <glyph glyph-name="Zdotaccent" unicode="&#x17b;" horiz-adv-x="223" 
d="M86 793c0 15 11 25 25 25c15 0 25 -10 25 -25c0 -14 -10 -25 -25 -25c-14 0 -25 11 -25 25zM18 0v37l148 626h-148v37h187v-37l-148 -626h148v-37h-187z" />
    <glyph glyph-name="a" unicode="a" 
d="M233 466v-466h-38v23c-13 -16 -35 -32 -68 -32c-53 0 -92 42 -92 99v139c0 57 39 99 92 99c33 0 55 -16 68 -32v170c0 36 -26 62 -61 62s-61 -26 -61 -62v-82h-38v82c0 57 42 99 99 99s99 -42 99 -99zM73 229v-139c0 -36 26 -62 61 -62s61 26 61 62v139
c0 36 -26 62 -61 62s-61 -26 -61 -62z" />
    <glyph glyph-name="a.salt" 
d="M73 465v-375c0 -36 26 -62 61 -62s61 26 61 62v375c0 36 -26 62 -61 62s-61 -26 -61 -62zM233 555v-555h-38v23c-13 -16 -35 -32 -68 -32c-53 0 -92 42 -92 99v375c0 57 39 99 92 99c33 0 55 -16 68 -32v23h38z" />
    <glyph glyph-name="b" unicode="b" 
d="M35 0v740h38v-208c13 16 35 32 68 32c53 0 92 -42 92 -99v-375c0 -57 -39 -99 -92 -99c-33 0 -55 16 -68 32v-23h-38zM195 90v375c0 36 -26 62 -61 62s-61 -26 -61 -62v-375c0 -36 26 -62 61 -62s61 26 61 62z" />
    <glyph glyph-name="c" unicode="c" 
d="M35 89v377c0 57 42 99 99 99s99 -42 99 -99v-98h-38v98c0 36 -26 62 -61 62s-61 -26 -61 -62v-377c0 -36 26 -62 61 -62s61 26 61 62v99h38v-99c0 -57 -42 -99 -99 -99s-99 42 -99 99z" />
    <glyph glyph-name="d" unicode="d" 
d="M73 465v-375c0 -36 26 -62 61 -62s61 26 61 62v375c0 36 -26 62 -61 62s-61 -26 -61 -62zM233 740v-740h-38v23c-13 -16 -35 -32 -68 -32c-53 0 -92 42 -92 99v375c0 57 39 99 92 99c33 0 55 -16 68 -32v208h38z" />
    <glyph glyph-name="e" unicode="e" 
d="M35 89v377c0 57 42 99 99 99s99 -42 99 -99v-206h-160v-171c0 -36 26 -62 61 -62s61 26 61 62v86h38v-86c0 -57 -42 -99 -99 -99s-99 42 -99 99zM73 466v-170h122v170c0 36 -26 62 -61 62s-61 -26 -61 -62z" />
    <glyph glyph-name="f" unicode="f" horiz-adv-x="198" 
d="M104 626v-71h86v-37h-86v-518h-38v518h-58v37h58v72c0 84 26 137 124 113v-35c-64 17 -86 -12 -86 -79z" />
    <glyph glyph-name="g" unicode="g" 
d="M195 71c-13 -16 -35 -32 -68 -32c-53 0 -92 42 -92 99v327c0 57 39 99 92 99c33 0 55 -16 68 -32v23h38v-616c0 -57 -42 -99 -99 -99s-99 42 -99 99v43h38v-43c0 -36 26 -62 61 -62s61 26 61 62v132zM73 465v-327c0 -36 26 -62 61 -62s61 26 61 62v327
c0 36 -26 62 -61 62s-61 -26 -61 -62z" />
    <glyph glyph-name="h" unicode="h" 
d="M35 0v740h38v-208c13 16 35 32 68 32c53 0 92 -42 92 -99v-465h-38v465c0 36 -26 62 -61 62s-61 -26 -61 -62v-465h-38z" />
    <glyph glyph-name="i" unicode="i" horiz-adv-x="108" 
d="M35 0v555h38v-555h-38zM29 678c0 15 10 25 25 25c14 0 25 -10 25 -25c0 -14 -11 -25 -25 -25c-15 0 -25 11 -25 25z" />
    <glyph glyph-name="j" unicode="j" horiz-adv-x="113" 
d="M34 678c0 15 10 25 25 25c14 0 25 -10 25 -25c0 -14 -11 -25 -25 -25c-15 0 -25 11 -25 25zM40 -16v571h38v-575c0 -99 -18 -154 -115 -130v35c66 -18 77 17 77 99z" />
    <glyph glyph-name="j.salt" horiz-adv-x="108" 
d="M35 -150v705h38v-705h-38zM29 678c0 15 10 25 25 25c14 0 25 -10 25 -25c0 -14 -11 -25 -25 -25c-15 0 -25 11 -25 25z" />
    <glyph glyph-name="k" unicode="k" horiz-adv-x="249" 
d="M209 555h38l-139 -277l139 -278h-40l-134 264v-264h-38v740h38v-455z" />
    <glyph glyph-name="l" unicode="l" horiz-adv-x="108" 
d="M35 0v740h38v-740h-38z" />
    <glyph glyph-name="m" unicode="m" horiz-adv-x="428" 
d="M393 0h-38v465c0 36 -26 62 -61 62s-61 -26 -61 -62v-465h-38v465c0 36 -26 62 -61 62s-61 -26 -61 -62v-465h-38v555h38v-23c13 16 35 32 68 32c38 0 65 -21 78 -45c14 24 41 45 79 45c55 0 95 -42 95 -99v-465z" />
    <glyph glyph-name="n" unicode="n" 
d="M35 0v555h38v-23c13 16 35 32 68 32c53 0 92 -42 92 -99v-465h-38v465c0 36 -26 62 -61 62s-61 -26 -61 -62v-465h-38z" />
    <glyph glyph-name="o" unicode="o" 
d="M35 89v377c0 57 42 99 99 99s99 -42 99 -99v-377c0 -57 -42 -99 -99 -99s-99 42 -99 99zM73 89c0 -36 26 -62 61 -62s61 26 61 62v377c0 36 -26 62 -61 62s-61 -26 -61 -62v-377z" />
    <glyph glyph-name="p" unicode="p" 
d="M35 -150v705h38v-23c13 16 35 32 68 32c53 0 92 -42 92 -99v-375c0 -57 -39 -99 -92 -99c-33 0 -55 16 -68 32v-173h-38zM195 90v375c0 36 -26 62 -61 62s-61 -26 -61 -62v-375c0 -36 26 -62 61 -62s61 26 61 62z" />
    <glyph glyph-name="q" unicode="q" 
d="M73 465v-375c0 -36 26 -62 61 -62s61 26 61 62v375c0 36 -26 62 -61 62s-61 -26 -61 -62zM233 555v-705h-38v173c-13 -16 -35 -32 -68 -32c-53 0 -92 42 -92 99v375c0 57 39 99 92 99c33 0 55 -16 68 -32v23h38z" />
    <glyph glyph-name="r" unicode="r" horiz-adv-x="170" 
d="M35 0v555h38v-32c13 29 42 47 93 32v-39c-67 21 -93 -20 -93 -86v-430h-38z" />
    <glyph glyph-name="r.salt" 
d="M35 0v555h38v-23c13 16 35 32 68 32c53 0 92 -42 92 -99v-165h-38v165c0 36 -26 62 -61 62s-61 -26 -61 -62v-465h-38z" />
    <glyph glyph-name="s" unicode="s" 
d="M35 181h38v-92c0 -36 26 -62 61 -62s61 26 61 62v56c0 109 -160 134 -160 266v55c0 57 42 99 99 99s99 -42 99 -99v-92h-38v92c0 36 -26 62 -61 62s-61 -26 -61 -62v-55c0 -110 160 -134 160 -266v-56c0 -57 -42 -99 -99 -99s-99 42 -99 99v92z" />
    <glyph glyph-name="t" unicode="t" horiz-adv-x="198" 
d="M66 670l38 7v-122h86v-37h-86v-404c0 -67 22 -95 86 -79v-35c-98 -24 -124 29 -124 113v405h-58v37h58v115z" />
    <glyph glyph-name="u" unicode="u" 
d="M233 555v-555h-38v23c-13 -16 -35 -32 -68 -32c-53 0 -92 42 -92 99v465h38v-465c0 -36 26 -62 61 -62s61 26 61 62v465h38z" />
    <glyph glyph-name="v" unicode="v" horiz-adv-x="250" 
d="M10 555h38l77 -475l77 475h38l-94 -555h-42z" />
    <glyph glyph-name="w" unicode="w" horiz-adv-x="363" 
d="M125 555h34l22 -171l23 171h34l-38 -252l38 -227l78 479h37l-93 -555h-38l-40 240l-41 -240h-37l-94 555h38l77 -479l37 227z" />
    <glyph glyph-name="x" unicode="x" horiz-adv-x="250" 
d="M202 555h38l-93 -277l93 -278h-38l-77 235l-77 -235h-38l92 278l-92 277h38l77 -237z" />
    <glyph glyph-name="y" unicode="y" horiz-adv-x="250" 
d="M10 555h38l77 -475l77 475h38l-119 -705h-38l26 149l-5 1z" />
    <glyph glyph-name="z" unicode="z" horiz-adv-x="213" 
d="M18 0v37l137 481h-137v37h177v-37l-137 -481h137v-37h-177z" />
    <glyph glyph-name="ae" unicode="&#xe6;" horiz-adv-x="428" 
d="M131 565c39 0 69 -20 83 -51c14 31 44 51 82 51c56 0 97 -41 97 -96v-209h-160v-171c0 -36 26 -62 61 -62s61 26 61 62v86h38v-89c0 -55 -41 -96 -97 -96c-38 0 -68 20 -82 51c-14 -31 -44 -51 -83 -51c-55 0 -96 41 -96 96v120c0 52 37 90 88 90h72v170
c0 36 -26 62 -61 62s-61 -26 -61 -62v-82h-38v85c0 55 41 96 96 96zM195 89v171h-61c-35 0 -61 -26 -61 -62v-109c0 -36 26 -62 61 -62s61 26 61 62zM233 466v-170h122v170c0 36 -26 62 -61 62s-61 -26 -61 -62z" />
    <glyph glyph-name="eng" unicode="&#x14b;" 
d="M35 0v555h38v-23c13 16 35 32 68 32c53 0 92 -42 92 -99v-485c0 -99 -18 -154 -115 -130v35c66 -18 77 17 77 99v481c0 36 -26 62 -61 62s-61 -26 -61 -62v-465h-38z" />
    <glyph glyph-name="germandbls" unicode="&#xdf;" 
d="M35 0v611c0 57 42 99 99 99s99 -42 99 -99v-128c0 -40 -22 -72 -56 -87c34 -15 56 -48 56 -88v-209c0 -57 -42 -99 -99 -99h-26v37h26c35 0 61 26 61 62v216c0 36 -26 62 -61 62h-26v37h26c35 0 61 26 61 62v135c0 36 -26 62 -61 62s-61 -26 -61 -62v-611h-38z" />
    <glyph glyph-name="eth" unicode="&#xf0;" 
d="M65 659l83 15c-11 23 -24 44 -39 66h38c13 -20 25 -39 35 -60l73 13l5 -29l-65 -12c25 -57 38 -119 38 -187v-376c0 -57 -42 -99 -99 -99s-99 42 -99 99v376c0 57 39 99 92 99c31 0 49 -15 63 -30c-5 38 -15 75 -30 112l-89 -16zM195 89v376c0 36 -26 62 -61 62
s-61 -26 -61 -62v-376c0 -36 26 -62 61 -62s61 26 61 62z" />
    <glyph glyph-name="ij" unicode="&#x133;" horiz-adv-x="220" 
d="M35 0v555h38v-555h-38zM29 678c0 15 10 25 25 25c14 0 25 -10 25 -25c0 -14 -11 -25 -25 -25c-15 0 -25 11 -25 25zM141 678c0 15 10 25 25 25c14 0 25 -10 25 -25c0 -14 -11 -25 -25 -25c-15 0 -25 11 -25 25zM147 -16v571h38v-575c0 -99 -18 -154 -115 -130v35
c66 -18 77 17 77 99z" />
    <glyph glyph-name="ij.salt" horiz-adv-x="215" 
d="M35 0v555h38v-555h-38zM29 678c0 15 10 25 25 25c14 0 25 -10 25 -25c0 -14 -11 -25 -25 -25c-15 0 -25 11 -25 25zM142 -150v705h38v-705h-38zM136 678c0 15 10 25 25 25c14 0 25 -10 25 -25c0 -14 -11 -25 -25 -25c-15 0 -25 11 -25 25z" />
    <glyph glyph-name="kgreenlandic" unicode="&#x138;" horiz-adv-x="249" 
d="M35 0v555h38v-270l136 270h38l-139 -277l139 -278h-40l-134 264v-264h-38z" />
    <glyph glyph-name="oe" unicode="&#x153;" horiz-adv-x="428" 
d="M35 86v383c0 55 41 96 96 96c39 0 69 -20 83 -51c14 31 44 51 82 51c56 0 97 -41 97 -96v-209h-160v-171c0 -36 26 -62 61 -62s61 26 61 62v86h38v-89c0 -55 -41 -96 -97 -96c-38 0 -68 20 -82 51c-14 -31 -44 -51 -83 -51c-55 0 -96 41 -96 96zM73 466v-377
c0 -36 26 -62 61 -62s61 26 61 62v377c0 36 -26 62 -61 62s-61 -26 -61 -62zM233 466v-170h122v170c0 36 -26 62 -61 62s-61 -26 -61 -62z" />
    <glyph glyph-name="oslash" unicode="&#xf8;" 
d="M58 -40h-35l23 80c-7 14 -11 31 -11 49v377c0 57 42 99 99 99c23 0 45 -7 61 -20l15 50h35l-24 -81c8 -14 12 -30 12 -48v-377c0 -57 -42 -99 -99 -99c-24 0 -45 7 -62 19zM134 27c35 0 61 26 61 62v336l-110 -374c11 -15 28 -24 49 -24zM73 466v-336l110 374
c-11 15 -29 24 -49 24c-35 0 -61 -26 -61 -62z" />
    <glyph glyph-name="thorn" unicode="&#xfe;" 
d="M35 -150v890h38v-208c13 16 35 32 68 32c53 0 92 -42 92 -99v-375c0 -57 -39 -99 -92 -99c-33 0 -55 16 -68 32v-173h-38zM195 90v375c0 36 -26 62 -61 62s-61 -26 -61 -62v-375c0 -36 26 -62 61 -62s61 26 61 62z" />
    <glyph glyph-name="aacute" unicode="&#xe1;" 
d="M233 466v-466h-38v23c-13 -16 -35 -32 -68 -32c-53 0 -92 42 -92 99v139c0 57 39 99 92 99c33 0 55 -16 68 -32v170c0 36 -26 62 -61 62s-61 -26 -61 -62v-82h-38v82c0 57 42 99 99 99s99 -42 99 -99zM73 229v-139c0 -36 26 -62 61 -62s61 26 61 62v139
c0 36 -26 62 -61 62s-61 -26 -61 -62zM104 625l63 115h42l-71 -115h-34z" />
    <glyph glyph-name="abreve" unicode="&#x103;" 
d="M233 466v-466h-38v23c-13 -16 -35 -32 -68 -32c-53 0 -92 42 -92 99v139c0 57 39 99 92 99c33 0 55 -16 68 -32v170c0 36 -26 62 -61 62s-61 -26 -61 -62v-82h-38v82c0 57 42 99 99 99s99 -42 99 -99zM73 229v-139c0 -36 26 -62 61 -62s61 26 61 62v139
c0 36 -26 62 -61 62s-61 -26 -61 -62zM186 740h32c0 -67 -17 -120 -84 -120c-68 0 -85 53 -85 120h33c0 -50 9 -90 52 -90c42 0 52 40 52 90z" />
    <glyph glyph-name="acircumflex" unicode="&#xe2;" 
d="M233 466v-466h-38v23c-13 -16 -35 -32 -68 -32c-53 0 -92 42 -92 99v139c0 57 39 99 92 99c33 0 55 -16 68 -32v170c0 36 -26 62 -61 62s-61 -26 -61 -62v-82h-38v82c0 57 42 99 99 99s99 -42 99 -99zM73 229v-139c0 -36 26 -62 61 -62s61 26 61 62v139
c0 36 -26 62 -61 62s-61 -26 -61 -62zM157 740l68 -115h-37l-55 95l-55 -95h-37l69 115h47z" />
    <glyph glyph-name="adieresis" unicode="&#xe4;" 
d="M233 466v-466h-38v23c-13 -16 -35 -32 -68 -32c-53 0 -92 42 -92 99v139c0 57 39 99 92 99c33 0 55 -16 68 -32v170c0 36 -26 62 -61 62s-61 -26 -61 -62v-82h-38v82c0 57 42 99 99 99s99 -42 99 -99zM73 229v-139c0 -36 26 -62 61 -62s61 26 61 62v139
c0 36 -26 62 -61 62s-61 -26 -61 -62zM54 678c0 14 10 25 24 25s25 -11 25 -25s-11 -24 -25 -24s-24 10 -24 24zM165 678c0 14 10 25 24 25s24 -11 24 -25s-10 -24 -24 -24s-24 10 -24 24z" />
    <glyph glyph-name="agrave" unicode="&#xe0;" 
d="M233 466v-466h-38v23c-13 -16 -35 -32 -68 -32c-53 0 -92 42 -92 99v139c0 57 39 99 92 99c33 0 55 -16 68 -32v170c0 36 -26 62 -61 62s-61 -26 -61 -62v-82h-38v82c0 57 42 99 99 99s99 -42 99 -99zM73 229v-139c0 -36 26 -62 61 -62s61 26 61 62v139
c0 36 -26 62 -61 62s-61 -26 -61 -62zM130 625l-71 115h42l63 -115h-34z" />
    <glyph glyph-name="amacron" unicode="&#x101;" 
d="M233 466v-466h-38v23c-13 -16 -35 -32 -68 -32c-53 0 -92 42 -92 99v139c0 57 39 99 92 99c33 0 55 -16 68 -32v170c0 36 -26 62 -61 62s-61 -26 -61 -62v-82h-38v82c0 57 42 99 99 99s99 -42 99 -99zM73 229v-139c0 -36 26 -62 61 -62s61 26 61 62v139
c0 36 -26 62 -61 62s-61 -26 -61 -62zM56 662v32h155v-32h-155z" />
    <glyph glyph-name="aogonek" unicode="&#x105;" 
d="M233 466v-466h-7c-38 -59 -42 -131 2 -131c6 0 14 2 22 5v-27c-10 -5 -22 -7 -32 -7c-64 0 -73 84 -23 161v22c-13 -16 -35 -32 -68 -32c-53 0 -92 42 -92 99v139c0 57 39 99 92 99c33 0 55 -16 68 -32v170c0 36 -26 62 -61 62s-61 -26 -61 -62v-82h-38v82
c0 57 42 99 99 99s99 -42 99 -99zM73 229v-139c0 -36 26 -62 61 -62s61 26 61 62v139c0 36 -26 62 -61 62s-61 -26 -61 -62z" />
    <glyph glyph-name="aring" unicode="&#xe5;" 
d="M233 466v-466h-38v23c-13 -16 -35 -32 -68 -32c-53 0 -92 42 -92 99v139c0 57 39 99 92 99c33 0 55 -16 68 -32v170c0 36 -26 62 -61 62s-61 -26 -61 -62v-82h-38v82c0 57 42 99 99 99s99 -42 99 -99zM73 229v-139c0 -36 26 -62 61 -62s61 26 61 62v139
c0 36 -26 62 -61 62s-61 -26 -61 -62zM62 683c0 41 30 71 72 71c41 0 71 -30 71 -71s-30 -71 -71 -71c-42 0 -72 30 -72 71zM93 683c0 -26 18 -44 41 -44s40 18 40 44c0 25 -17 43 -40 43s-41 -18 -41 -43z" />
    <glyph glyph-name="atilde" unicode="&#xe3;" 
d="M233 466v-466h-38v23c-13 -16 -35 -32 -68 -32c-53 0 -92 42 -92 99v139c0 57 39 99 92 99c33 0 55 -16 68 -32v170c0 36 -26 62 -61 62s-61 -26 -61 -62v-82h-38v82c0 57 42 99 99 99s99 -42 99 -99zM73 229v-139c0 -36 26 -62 61 -62s61 26 61 62v139
c0 36 -26 62 -61 62s-61 -26 -61 -62zM24 673c23 43 45 58 67 58c44 0 59 -58 86 -58c13 0 26 12 43 41l23 -14c-23 -43 -45 -58 -67 -58c-44 0 -59 58 -86 58c-14 0 -27 -12 -44 -42z" />
    <glyph glyph-name="aacute.salt" 
d="M104 625l63 115h42l-71 -115h-34zM73 465v-375c0 -36 26 -62 61 -62s61 26 61 62v375c0 36 -26 62 -61 62s-61 -26 -61 -62zM233 555v-555h-38v23c-13 -16 -35 -32 -68 -32c-53 0 -92 42 -92 99v375c0 57 39 99 92 99c33 0 55 -16 68 -32v23h38z" />
    <glyph glyph-name="abreve.salt" 
d="M73 465v-375c0 -36 26 -62 61 -62s61 26 61 62v375c0 36 -26 62 -61 62s-61 -26 -61 -62zM233 555v-555h-38v23c-13 -16 -35 -32 -68 -32c-53 0 -92 42 -92 99v375c0 57 39 99 92 99c33 0 55 -16 68 -32v23h38zM186 740h32c0 -67 -17 -120 -84 -120c-68 0 -85 53 -85 120
h33c0 -50 9 -90 52 -90c42 0 52 40 52 90z" />
    <glyph glyph-name="acircumflex.salt" 
d="M157 740l68 -115h-37l-55 95l-55 -95h-37l69 115h47zM73 465v-375c0 -36 26 -62 61 -62s61 26 61 62v375c0 36 -26 62 -61 62s-61 -26 -61 -62zM233 555v-555h-38v23c-13 -16 -35 -32 -68 -32c-53 0 -92 42 -92 99v375c0 57 39 99 92 99c33 0 55 -16 68 -32v23h38z" />
    <glyph glyph-name="adieresis.salt" 
d="M54 678c0 14 10 25 24 25s25 -11 25 -25s-11 -24 -25 -24s-24 10 -24 24zM165 678c0 14 10 25 24 25s24 -11 24 -25s-10 -24 -24 -24s-24 10 -24 24zM73 465v-375c0 -36 26 -62 61 -62s61 26 61 62v375c0 36 -26 62 -61 62s-61 -26 -61 -62zM233 555v-555h-38v23
c-13 -16 -35 -32 -68 -32c-53 0 -92 42 -92 99v375c0 57 39 99 92 99c33 0 55 -16 68 -32v23h38z" />
    <glyph glyph-name="agrave.salt" 
d="M73 465v-375c0 -36 26 -62 61 -62s61 26 61 62v375c0 36 -26 62 -61 62s-61 -26 -61 -62zM233 555v-555h-38v23c-13 -16 -35 -32 -68 -32c-53 0 -92 42 -92 99v375c0 57 39 99 92 99c33 0 55 -16 68 -32v23h38zM130 625l-71 115h42l63 -115h-34z" />
    <glyph glyph-name="amacron.salt" 
d="M73 465v-375c0 -36 26 -62 61 -62s61 26 61 62v375c0 36 -26 62 -61 62s-61 -26 -61 -62zM233 555v-555h-38v23c-13 -16 -35 -32 -68 -32c-53 0 -92 42 -92 99v375c0 57 39 99 92 99c33 0 55 -16 68 -32v23h38zM56 662v32h155v-32h-155z" />
    <glyph glyph-name="aogonek.salt" 
d="M233 555v-555h-7c-38 -59 -42 -131 2 -131c6 0 14 2 22 5v-27c-10 -5 -22 -7 -32 -7c-64 0 -73 84 -23 161v22c-13 -16 -35 -32 -68 -32c-53 0 -92 42 -92 99v375c0 57 39 99 92 99c33 0 55 -16 68 -32v23h38zM73 465v-375c0 -36 26 -62 61 -62s61 26 61 62v375
c0 36 -26 62 -61 62s-61 -26 -61 -62z" />
    <glyph glyph-name="aring.salt" 
d="M62 683c0 41 30 71 72 71c41 0 71 -30 71 -71s-30 -71 -71 -71c-42 0 -72 30 -72 71zM93 683c0 -26 18 -44 41 -44s40 18 40 44c0 25 -17 43 -40 43s-41 -18 -41 -43zM73 465v-375c0 -36 26 -62 61 -62s61 26 61 62v375c0 36 -26 62 -61 62s-61 -26 -61 -62zM233 555
v-555h-38v23c-13 -16 -35 -32 -68 -32c-53 0 -92 42 -92 99v375c0 57 39 99 92 99c33 0 55 -16 68 -32v23h38z" />
    <glyph glyph-name="atilde.salt" 
d="M73 465v-375c0 -36 26 -62 61 -62s61 26 61 62v375c0 36 -26 62 -61 62s-61 -26 -61 -62zM233 555v-555h-38v23c-13 -16 -35 -32 -68 -32c-53 0 -92 42 -92 99v375c0 57 39 99 92 99c33 0 55 -16 68 -32v23h38zM24 673c23 43 45 58 67 58c44 0 59 -58 86 -58
c13 0 26 12 43 41l23 -14c-23 -43 -45 -58 -67 -58c-44 0 -59 58 -86 58c-14 0 -27 -12 -44 -42z" />
    <glyph glyph-name="cacute" unicode="&#x107;" 
d="M104 625l63 115h42l-71 -115h-34zM35 89v377c0 57 42 99 99 99s99 -42 99 -99v-98h-38v98c0 36 -26 62 -61 62s-61 -26 -61 -62v-377c0 -36 26 -62 61 -62s61 26 61 62v99h38v-99c0 -57 -42 -99 -99 -99s-99 42 -99 99z" />
    <glyph glyph-name="ccaron" unicode="&#x10d;" 
d="M110 625l-69 115h37l55 -95l55 95h37l-68 -115h-47zM35 89v377c0 57 42 99 99 99s99 -42 99 -99v-98h-38v98c0 36 -26 62 -61 62s-61 -26 -61 -62v-377c0 -36 26 -62 61 -62s61 26 61 62v99h38v-99c0 -57 -42 -99 -99 -99s-99 42 -99 99z" />
    <glyph glyph-name="ccedilla" unicode="&#xe7;" 
d="M35 89v377c0 57 42 99 99 99s99 -42 99 -99v-98h-38v98c0 36 -26 62 -61 62s-61 -26 -61 -62v-377c0 -36 26 -62 61 -62s61 26 61 62v99h38v-99c0 -51 -33 -89 -81 -97c-6 -9 -8 -17 -8 -23c0 -28 47 -38 47 -82c0 -28 -27 -47 -59 -47c-12 0 -25 3 -38 9v29
c11 -6 20 -8 29 -8c17 0 30 8 30 22c0 28 -42 36 -42 74c0 6 2 16 6 25c-48 8 -82 47 -82 98z" />
    <glyph glyph-name="ccircumflex" unicode="&#x109;" 
d="M157 740l68 -115h-37l-55 95l-55 -95h-37l69 115h47zM35 89v377c0 57 42 99 99 99s99 -42 99 -99v-98h-38v98c0 36 -26 62 -61 62s-61 -26 -61 -62v-377c0 -36 26 -62 61 -62s61 26 61 62v99h38v-99c0 -57 -42 -99 -99 -99s-99 42 -99 99z" />
    <glyph glyph-name="cdotaccent" unicode="&#x10b;" 
d="M35 89v377c0 57 42 99 99 99s99 -42 99 -99v-98h-38v98c0 36 -26 62 -61 62s-61 -26 -61 -62v-377c0 -36 26 -62 61 -62s61 26 61 62v99h38v-99c0 -57 -42 -99 -99 -99s-99 42 -99 99zM108 678c0 15 11 25 25 25c15 0 25 -10 25 -25c0 -14 -10 -25 -25 -25
c-14 0 -25 11 -25 25z" />
    <glyph glyph-name="dcaron" unicode="&#x10f;" horiz-adv-x="316" 
d="M260 590l24 150h38l-34 -150h-28zM73 465v-375c0 -36 26 -62 61 -62s61 26 61 62v375c0 36 -26 62 -61 62s-61 -26 -61 -62zM233 740v-740h-38v23c-13 -16 -35 -32 -68 -32c-53 0 -92 42 -92 99v375c0 57 39 99 92 99c33 0 55 -16 68 -32v208h38z" />
    <glyph glyph-name="dcroat" unicode="&#x111;" 
d="M233 740v-78h34v-32h-34v-630h-38v23c-13 -16 -35 -32 -68 -32c-53 0 -92 42 -92 99v375c0 57 39 99 92 99c33 0 55 -16 68 -32v98h-83v32h83v78h38zM73 465v-375c0 -36 26 -62 61 -62s61 26 61 62v375c0 36 -26 62 -61 62s-61 -26 -61 -62z" />
    <glyph glyph-name="eacute" unicode="&#xe9;" 
d="M104 625l63 115h42l-71 -115h-34zM35 89v377c0 57 42 99 99 99s99 -42 99 -99v-206h-160v-171c0 -36 26 -62 61 -62s61 26 61 62v86h38v-86c0 -57 -42 -99 -99 -99s-99 42 -99 99zM73 466v-170h122v170c0 36 -26 62 -61 62s-61 -26 -61 -62z" />
    <glyph glyph-name="ebreve" unicode="&#x115;" 
d="M35 89v377c0 57 42 99 99 99s99 -42 99 -99v-206h-160v-171c0 -36 26 -62 61 -62s61 26 61 62v86h38v-86c0 -57 -42 -99 -99 -99s-99 42 -99 99zM73 466v-170h122v170c0 36 -26 62 -61 62s-61 -26 -61 -62zM186 740h32c0 -67 -17 -120 -84 -120c-68 0 -85 53 -85 120h33
c0 -50 9 -90 52 -90c42 0 52 40 52 90z" />
    <glyph glyph-name="ecaron" unicode="&#x11b;" 
d="M110 625l-69 115h37l55 -95l55 95h37l-68 -115h-47zM35 89v377c0 57 42 99 99 99s99 -42 99 -99v-206h-160v-171c0 -36 26 -62 61 -62s61 26 61 62v86h38v-86c0 -57 -42 -99 -99 -99s-99 42 -99 99zM73 466v-170h122v170c0 36 -26 62 -61 62s-61 -26 -61 -62z" />
    <glyph glyph-name="ecircumflex" unicode="&#xea;" 
d="M157 740l68 -115h-37l-55 95l-55 -95h-37l69 115h47zM35 89v377c0 57 42 99 99 99s99 -42 99 -99v-206h-160v-171c0 -36 26 -62 61 -62s61 26 61 62v86h38v-86c0 -57 -42 -99 -99 -99s-99 42 -99 99zM73 466v-170h122v170c0 36 -26 62 -61 62s-61 -26 -61 -62z" />
    <glyph glyph-name="edieresis" unicode="&#xeb;" 
d="M54 678c0 14 10 25 24 25s25 -11 25 -25s-11 -24 -25 -24s-24 10 -24 24zM165 678c0 14 10 25 24 25s24 -11 24 -25s-10 -24 -24 -24s-24 10 -24 24zM35 89v377c0 57 42 99 99 99s99 -42 99 -99v-206h-160v-171c0 -36 26 -62 61 -62s61 26 61 62v86h38v-86
c0 -57 -42 -99 -99 -99s-99 42 -99 99zM73 466v-170h122v170c0 36 -26 62 -61 62s-61 -26 -61 -62z" />
    <glyph glyph-name="edotaccent" unicode="&#x117;" 
d="M35 89v377c0 57 42 99 99 99s99 -42 99 -99v-206h-160v-171c0 -36 26 -62 61 -62s61 26 61 62v86h38v-86c0 -57 -42 -99 -99 -99s-99 42 -99 99zM73 466v-170h122v170c0 36 -26 62 -61 62s-61 -26 -61 -62zM108 678c0 15 11 25 25 25c15 0 25 -10 25 -25
c0 -14 -10 -25 -25 -25c-14 0 -25 11 -25 25z" />
    <glyph glyph-name="egrave" unicode="&#xe8;" 
d="M35 89v377c0 57 42 99 99 99s99 -42 99 -99v-206h-160v-171c0 -36 26 -62 61 -62s61 26 61 62v86h38v-86c0 -57 -42 -99 -99 -99s-99 42 -99 99zM73 466v-170h122v170c0 36 -26 62 -61 62s-61 -26 -61 -62zM130 625l-71 115h42l63 -115h-34z" />
    <glyph glyph-name="emacron" unicode="&#x113;" 
d="M35 89v377c0 57 42 99 99 99s99 -42 99 -99v-206h-160v-171c0 -36 26 -62 61 -62s61 26 61 62v86h38v-86c0 -57 -42 -99 -99 -99s-99 42 -99 99zM73 466v-170h122v170c0 36 -26 62 -61 62s-61 -26 -61 -62zM56 662v32h155v-32h-155z" />
    <glyph glyph-name="eogonek" unicode="&#x119;" 
d="M35 89v377c0 57 42 99 99 99s99 -42 99 -99v-206h-160v-171c0 -36 26 -62 61 -62s61 26 61 62v86h38v-86c0 -33 -14 -61 -37 -79c-39 -72 -41 -141 3 -141c7 0 14 2 22 5v-27c-10 -5 -21 -7 -31 -7c-62 0 -74 74 -34 152c-7 -1 -14 -2 -22 -2c-57 0 -99 42 -99 99z
M73 466v-170h122v170c0 36 -26 62 -61 62s-61 -26 -61 -62z" />
    <glyph glyph-name="gbreve" unicode="&#x11f;" 
d="M195 71c-13 -16 -35 -32 -68 -32c-53 0 -92 42 -92 99v327c0 57 39 99 92 99c33 0 55 -16 68 -32v23h38v-616c0 -57 -42 -99 -99 -99s-99 42 -99 99v43h38v-43c0 -36 26 -62 61 -62s61 26 61 62v132zM73 465v-327c0 -36 26 -62 61 -62s61 26 61 62v327
c0 36 -26 62 -61 62s-61 -26 -61 -62zM186 740h32c0 -67 -17 -120 -84 -120c-68 0 -85 53 -85 120h33c0 -50 9 -90 52 -90c42 0 52 40 52 90z" />
    <glyph glyph-name="gcircumflex" unicode="&#x11d;" 
d="M157 740l68 -115h-37l-55 95l-55 -95h-37l69 115h47zM195 71c-13 -16 -35 -32 -68 -32c-53 0 -92 42 -92 99v327c0 57 39 99 92 99c33 0 55 -16 68 -32v23h38v-616c0 -57 -42 -99 -99 -99s-99 42 -99 99v43h38v-43c0 -36 26 -62 61 -62s61 26 61 62v132zM73 465v-327
c0 -36 26 -62 61 -62s61 26 61 62v327c0 36 -26 62 -61 62s-61 -26 -61 -62z" />
    <glyph glyph-name="gcommaaccent" unicode="&#x123;" 
d="M165 740l-18 -102h-38l24 102h32zM195 71c-13 -16 -35 -32 -68 -32c-53 0 -92 42 -92 99v327c0 57 39 99 92 99c33 0 55 -16 68 -32v23h38v-616c0 -57 -42 -99 -99 -99s-99 42 -99 99v43h38v-43c0 -36 26 -62 61 -62s61 26 61 62v132zM73 465v-327c0 -36 26 -62 61 -62
s61 26 61 62v327c0 36 -26 62 -61 62s-61 -26 -61 -62z" />
    <glyph glyph-name="gdotaccent" unicode="&#x121;" 
d="M195 71c-13 -16 -35 -32 -68 -32c-53 0 -92 42 -92 99v327c0 57 39 99 92 99c33 0 55 -16 68 -32v23h38v-616c0 -57 -42 -99 -99 -99s-99 42 -99 99v43h38v-43c0 -36 26 -62 61 -62s61 26 61 62v132zM73 465v-327c0 -36 26 -62 61 -62s61 26 61 62v327
c0 36 -26 62 -61 62s-61 -26 -61 -62zM108 678c0 15 11 25 25 25c15 0 25 -10 25 -25c0 -14 -10 -25 -25 -25c-14 0 -25 11 -25 25z" />
    <glyph glyph-name="hbar" unicode="&#x127;" 
d="M0 630v32h35v78h38v-78h82v-32h-82v-98c13 16 35 32 68 32c53 0 92 -42 92 -99v-465h-38v465c0 36 -26 62 -61 62s-61 -26 -61 -62v-465h-38v630h-35z" />
    <glyph glyph-name="hcircumflex" unicode="&#x125;" 
d="M35 0v740h38v-208c13 16 35 32 68 32c53 0 92 -42 92 -99v-465h-38v465c0 36 -26 62 -61 62s-61 -26 -61 -62v-465h-38zM78 857l68 -115h-37l-55 95l-55 -95h-37l69 115h47z" />
    <glyph glyph-name="iacute" unicode="&#xed;" horiz-adv-x="108" 
d="M24 625l63 115h42l-71 -115h-34zM35 0v555h38v-555h-38z" />
    <glyph glyph-name="ibreve" unicode="&#x12d;" horiz-adv-x="108" 
d="M35 0v555h38v-555h-38zM107 740h32c0 -67 -17 -120 -84 -120c-68 0 -85 53 -85 120h33c0 -50 9 -90 52 -90c42 0 52 40 52 90z" />
    <glyph glyph-name="icircumflex" unicode="&#xee;" horiz-adv-x="108" 
d="M78 740l68 -115h-37l-55 95l-55 -95h-37l69 115h47zM35 0v555h38v-555h-38z" />
    <glyph glyph-name="idieresis" unicode="&#xef;" horiz-adv-x="108" 
d="M-25 678c0 14 10 25 24 25s25 -11 25 -25s-11 -24 -25 -24s-24 10 -24 24zM86 678c0 14 10 25 24 25s24 -11 24 -25s-10 -24 -24 -24s-24 10 -24 24zM35 0v555h38v-555h-38z" />
    <glyph glyph-name="dotlessi" unicode="&#x131;" horiz-adv-x="108" 
d="M35 0v555h38v-555h-38z" />
    <glyph glyph-name="igrave" unicode="&#xec;" horiz-adv-x="108" 
d="M35 0v555h38v-555h-38zM50 625l-71 115h42l63 -115h-34z" />
    <glyph glyph-name="imacron" unicode="&#x12b;" horiz-adv-x="108" 
d="M35 0v555h38v-555h-38zM-23 662v32h155v-32h-155z" />
    <glyph glyph-name="iogonek" unicode="&#x12f;" horiz-adv-x="108" 
d="M35 0v555h38v-555c-38 -59 -42 -131 2 -131c6 0 14 2 22 5v-27c-10 -5 -22 -7 -32 -7c-64 0 -72 83 -24 160h-6zM29 678c0 15 10 25 25 25c14 0 25 -10 25 -25c0 -14 -11 -25 -25 -25c-15 0 -25 11 -25 25z" />
    <glyph glyph-name="itilde" unicode="&#x129;" horiz-adv-x="108" 
d="M35 0v555h38v-555h-38zM-55 673c23 43 45 58 67 58c44 0 59 -58 86 -58c13 0 26 12 43 41l23 -14c-23 -43 -45 -58 -67 -58c-44 0 -59 58 -86 58c-14 0 -27 -12 -44 -42z" />
    <glyph glyph-name="i.TRK" horiz-adv-x="108" 
d="M35 0v555h38v-555h-38zM29 678c0 15 10 25 25 25c14 0 25 -10 25 -25c0 -14 -11 -25 -25 -25c-15 0 -25 11 -25 25z" />
    <glyph glyph-name="jcircumflex" unicode="&#x135;" horiz-adv-x="113" 
d="M40 -16v571h38v-575c0 -99 -18 -154 -115 -130v35c66 -18 77 17 77 99zM83 740l68 -115h-37l-55 95l-55 -95h-37l69 115h47z" />
    <glyph glyph-name="jcircumflex.salt" horiz-adv-x="108" 
d="M35 -150v705h38v-705h-38zM78 740l68 -115h-37l-55 95l-55 -95h-37l69 115h47z" />
    <glyph glyph-name="kcommaaccent" unicode="&#x137;" horiz-adv-x="249" 
d="M96 -150l18 102h38l-24 -102h-32zM209 555h38l-139 -277l139 -278h-40l-134 264v-264h-38v740h38v-455z" />
    <glyph glyph-name="lacute" unicode="&#x13a;" horiz-adv-x="108" 
d="M31 780l64 75h46l-72 -75h-38zM35 0v740h38v-740h-38z" />
    <glyph glyph-name="lcaron" unicode="&#x13e;" horiz-adv-x="156" 
d="M100 590l24 150h38l-34 -150h-28zM35 0v740h38v-740h-38z" />
    <glyph glyph-name="lcommaaccent" unicode="&#x13c;" horiz-adv-x="108" 
d="M21 -150l18 102h38l-24 -102h-32zM35 0v740h38v-740h-38z" />
    <glyph glyph-name="ldot" unicode="&#x140;" horiz-adv-x="168" 
d="M35 0v740h38v-740h-38zM109 380c0 16 12 28 28 28s28 -12 28 -28s-12 -28 -28 -28s-28 12 -28 28z" />
    <glyph glyph-name="lslash" unicode="&#x142;" horiz-adv-x="133" 
d="M8 287v42l39 28v383h38v-355l40 29v-42l-40 -29v-343h-38v315z" />
    <glyph glyph-name="nacute" unicode="&#x144;" 
d="M104 625l63 115h42l-71 -115h-34zM35 0v555h38v-23c13 16 35 32 68 32c53 0 92 -42 92 -99v-465h-38v465c0 36 -26 62 -61 62s-61 -26 -61 -62v-465h-38z" />
    <glyph glyph-name="napostrophe" unicode="&#x149;" 
d="M25 637l18 102h38l-24 -102h-32zM35 0v555h38v-23c13 16 35 32 68 32c53 0 92 -42 92 -99v-465h-38v465c0 36 -26 62 -61 62s-61 -26 -61 -62v-465h-38z" />
    <glyph glyph-name="ncaron" unicode="&#x148;" 
d="M110 625l-69 115h37l55 -95l55 95h37l-68 -115h-47zM35 0v555h38v-23c13 16 35 32 68 32c53 0 92 -42 92 -99v-465h-38v465c0 36 -26 62 -61 62s-61 -26 -61 -62v-465h-38z" />
    <glyph glyph-name="ncommaaccent" unicode="&#x146;" 
d="M101 -150l18 102h38l-24 -102h-32zM35 0v555h38v-23c13 16 35 32 68 32c53 0 92 -42 92 -99v-465h-38v465c0 36 -26 62 -61 62s-61 -26 -61 -62v-465h-38z" />
    <glyph glyph-name="ntilde" unicode="&#xf1;" 
d="M35 0v555h38v-23c13 16 35 32 68 32c53 0 92 -42 92 -99v-465h-38v465c0 36 -26 62 -61 62s-61 -26 -61 -62v-465h-38zM24 673c23 43 45 58 67 58c44 0 59 -58 86 -58c13 0 26 12 43 41l23 -14c-23 -43 -45 -58 -67 -58c-44 0 -59 58 -86 58c-14 0 -27 -12 -44 -42z" />
    <glyph glyph-name="oacute" unicode="&#xf3;" 
d="M104 625l63 115h42l-71 -115h-34zM35 89v377c0 57 42 99 99 99s99 -42 99 -99v-377c0 -57 -42 -99 -99 -99s-99 42 -99 99zM73 89c0 -36 26 -62 61 -62s61 26 61 62v377c0 36 -26 62 -61 62s-61 -26 -61 -62v-377z" />
    <glyph glyph-name="obreve" unicode="&#x14f;" 
d="M35 89v377c0 57 42 99 99 99s99 -42 99 -99v-377c0 -57 -42 -99 -99 -99s-99 42 -99 99zM73 89c0 -36 26 -62 61 -62s61 26 61 62v377c0 36 -26 62 -61 62s-61 -26 -61 -62v-377zM186 740h32c0 -67 -17 -120 -84 -120c-68 0 -85 53 -85 120h33c0 -50 9 -90 52 -90
c42 0 52 40 52 90z" />
    <glyph glyph-name="ocircumflex" unicode="&#xf4;" 
d="M157 740l68 -115h-37l-55 95l-55 -95h-37l69 115h47zM35 89v377c0 57 42 99 99 99s99 -42 99 -99v-377c0 -57 -42 -99 -99 -99s-99 42 -99 99zM73 89c0 -36 26 -62 61 -62s61 26 61 62v377c0 36 -26 62 -61 62s-61 -26 -61 -62v-377z" />
    <glyph glyph-name="odieresis" unicode="&#xf6;" 
d="M54 678c0 14 10 25 24 25s25 -11 25 -25s-11 -24 -25 -24s-24 10 -24 24zM165 678c0 14 10 25 24 25s24 -11 24 -25s-10 -24 -24 -24s-24 10 -24 24zM35 89v377c0 57 42 99 99 99s99 -42 99 -99v-377c0 -57 -42 -99 -99 -99s-99 42 -99 99zM73 89c0 -36 26 -62 61 -62
s61 26 61 62v377c0 36 -26 62 -61 62s-61 -26 -61 -62v-377z" />
    <glyph glyph-name="ograve" unicode="&#xf2;" 
d="M35 89v377c0 57 42 99 99 99s99 -42 99 -99v-377c0 -57 -42 -99 -99 -99s-99 42 -99 99zM73 89c0 -36 26 -62 61 -62s61 26 61 62v377c0 36 -26 62 -61 62s-61 -26 -61 -62v-377zM130 625l-71 115h42l63 -115h-34z" />
    <glyph glyph-name="ohungarumlaut" unicode="&#x151;" 
d="M57 625l63 115h42l-71 -115h-34zM150 625l63 115h42l-71 -115h-34zM35 89v377c0 57 42 99 99 99s99 -42 99 -99v-377c0 -57 -42 -99 -99 -99s-99 42 -99 99zM73 89c0 -36 26 -62 61 -62s61 26 61 62v377c0 36 -26 62 -61 62s-61 -26 -61 -62v-377z" />
    <glyph glyph-name="omacron" unicode="&#x14d;" 
d="M56 662v32h155v-32h-155zM35 89v377c0 57 42 99 99 99s99 -42 99 -99v-377c0 -57 -42 -99 -99 -99s-99 42 -99 99zM73 89c0 -36 26 -62 61 -62s61 26 61 62v377c0 36 -26 62 -61 62s-61 -26 -61 -62v-377z" />
    <glyph glyph-name="otilde" unicode="&#xf5;" 
d="M35 89v377c0 57 42 99 99 99s99 -42 99 -99v-377c0 -57 -42 -99 -99 -99s-99 42 -99 99zM73 89c0 -36 26 -62 61 -62s61 26 61 62v377c0 36 -26 62 -61 62s-61 -26 -61 -62v-377zM24 673c23 43 45 58 67 58c44 0 59 -58 86 -58c13 0 26 12 43 41l23 -14
c-23 -43 -45 -58 -67 -58c-44 0 -59 58 -86 58c-14 0 -27 -12 -44 -42z" />
    <glyph glyph-name="racute" unicode="&#x155;" horiz-adv-x="170" 
d="M51 625l63 115h42l-71 -115h-34zM35 0v555h38v-32c13 29 42 47 93 32v-39c-67 21 -93 -20 -93 -86v-430h-38z" />
    <glyph glyph-name="rcaron" unicode="&#x159;" horiz-adv-x="170" 
d="M62 625l-69 115h37l55 -95l55 95h37l-68 -115h-47zM35 0v555h38v-32c13 29 42 47 93 32v-39c-67 21 -93 -20 -93 -86v-430h-38z" />
    <glyph glyph-name="rcommaaccent" unicode="&#x157;" horiz-adv-x="170" 
d="M26 -150l18 102h38l-24 -102h-32zM35 0v555h38v-32c13 29 42 47 93 32v-39c-67 21 -93 -20 -93 -86v-430h-38z" />
    <glyph glyph-name="racute.salt" 
d="M101 625l63 115h42l-71 -115h-34zM35 0v555h38v-23c13 16 35 32 68 32c53 0 92 -42 92 -99v-165h-38v165c0 36 -26 62 -61 62s-61 -26 -61 -62v-465h-38z" />
    <glyph glyph-name="rcaron.salt" 
d="M100 625l-69 115h37l55 -95l55 95h37l-68 -115h-47zM35 0v555h38v-23c13 16 35 32 68 32c53 0 92 -42 92 -99v-165h-38v165c0 36 -26 62 -61 62s-61 -26 -61 -62v-465h-38z" />
    <glyph glyph-name="rcommaaccent.salt" 
d="M26 -150l18 102h38l-24 -102h-32zM35 0v555h38v-23c13 16 35 32 68 32c53 0 92 -42 92 -99v-165h-38v165c0 36 -26 62 -61 62s-61 -26 -61 -62v-465h-38z" />
    <glyph glyph-name="sacute" unicode="&#x15b;" 
d="M104 625l63 115h42l-71 -115h-34zM35 181h38v-92c0 -36 26 -62 61 -62s61 26 61 62v56c0 109 -160 134 -160 266v55c0 57 42 99 99 99s99 -42 99 -99v-92h-38v92c0 36 -26 62 -61 62s-61 -26 -61 -62v-55c0 -110 160 -134 160 -266v-56c0 -57 -42 -99 -99 -99
s-99 42 -99 99v92z" />
    <glyph glyph-name="scaron" unicode="&#x161;" 
d="M110 625l-69 115h37l55 -95l55 95h37l-68 -115h-47zM35 181h38v-92c0 -36 26 -62 61 -62s61 26 61 62v56c0 109 -160 134 -160 266v55c0 57 42 99 99 99s99 -42 99 -99v-92h-38v92c0 36 -26 62 -61 62s-61 -26 -61 -62v-55c0 -110 160 -134 160 -266v-56
c0 -57 -42 -99 -99 -99s-99 42 -99 99v92z" />
    <glyph glyph-name="scedilla" unicode="&#x15f;" 
d="M35 181h38v-92c0 -36 26 -62 61 -62s61 26 61 62v56c0 109 -160 134 -160 266v55c0 57 42 99 99 99s99 -42 99 -99v-92h-38v92c0 36 -26 62 -61 62s-61 -26 -61 -62v-55c0 -110 160 -134 160 -266v-56c0 -52 -34 -90 -83 -98c-6 -9 -8 -16 -8 -22c0 -28 47 -38 47 -82
c0 -28 -27 -47 -59 -47c-12 0 -25 3 -38 9v29c11 -6 20 -8 29 -8c17 0 30 8 30 22c0 28 -42 36 -42 74c0 7 2 17 6 26c-47 8 -80 46 -80 97v92z" />
    <glyph glyph-name="scircumflex" unicode="&#x15d;" 
d="M157 740l68 -115h-37l-55 95l-55 -95h-37l69 115h47zM35 181h38v-92c0 -36 26 -62 61 -62s61 26 61 62v56c0 109 -160 134 -160 266v55c0 57 42 99 99 99s99 -42 99 -99v-92h-38v92c0 36 -26 62 -61 62s-61 -26 -61 -62v-55c0 -110 160 -134 160 -266v-56
c0 -57 -42 -99 -99 -99s-99 42 -99 99v92z" />
    <glyph glyph-name="uni0219" unicode="&#x219;" 
d="M101 -150l18 102h38l-24 -102h-32zM35 181h38v-92c0 -36 26 -62 61 -62s61 26 61 62v56c0 109 -160 134 -160 266v55c0 57 42 99 99 99s99 -42 99 -99v-92h-38v92c0 36 -26 62 -61 62s-61 -26 -61 -62v-55c0 -110 160 -134 160 -266v-56c0 -57 -42 -99 -99 -99
s-99 42 -99 99v92z" />
    <glyph glyph-name="tbar" unicode="&#x167;" horiz-adv-x="213" 
d="M66 670l38 7v-122h86v-37h-86v-152h86v-31h-86v-221c0 -67 22 -95 86 -79v-35c-98 -24 -124 29 -124 113v222h-51v31h51v152h-58v37h58v115z" />
    <glyph glyph-name="tcaron" unicode="&#x165;" horiz-adv-x="229" 
d="M131 590l24 150h38l-34 -150h-28zM66 670l38 7v-122h86v-37h-86v-404c0 -67 22 -95 86 -79v-35c-98 -24 -124 29 -124 113v405h-58v37h58v115z" />
    <glyph glyph-name="uni0163" unicode="&#x163;" horiz-adv-x="213" 
d="M66 670l38 7v-122h86v-37h-86v-404c0 -67 22 -95 86 -79v-35c-26 -6 -47 -7 -64 -4c-5 -8 -6 -15 -6 -20c0 -28 47 -45 47 -89c0 -28 -27 -47 -59 -47c-12 0 -25 3 -38 9v29c11 -6 20 -8 29 -8c17 0 30 8 30 22c0 28 -42 43 -42 81c0 8 4 24 11 36c-24 19 -32 57 -32 104
v405h-58v37h58v115z" />
    <glyph glyph-name="uni021B" unicode="&#x21b;" horiz-adv-x="213" 
d="M93 -150l18 102h38l-24 -102h-32zM66 670l38 7v-122h86v-37h-86v-404c0 -67 22 -95 86 -79v-35c-98 -24 -124 29 -124 113v405h-58v37h58v115z" />
    <glyph glyph-name="uacute" unicode="&#xfa;" 
d="M104 625l63 115h42l-71 -115h-34zM233 555v-555h-38v23c-13 -16 -35 -32 -68 -32c-53 0 -92 42 -92 99v465h38v-465c0 -36 26 -62 61 -62s61 26 61 62v465h38z" />
    <glyph glyph-name="ubreve" unicode="&#x16d;" 
d="M233 555v-555h-38v23c-13 -16 -35 -32 -68 -32c-53 0 -92 42 -92 99v465h38v-465c0 -36 26 -62 61 -62s61 26 61 62v465h38zM186 740h32c0 -67 -17 -120 -84 -120c-68 0 -85 53 -85 120h33c0 -50 9 -90 52 -90c42 0 52 40 52 90z" />
    <glyph glyph-name="ucircumflex" unicode="&#xfb;" 
d="M157 740l68 -115h-37l-55 95l-55 -95h-37l69 115h47zM233 555v-555h-38v23c-13 -16 -35 -32 -68 -32c-53 0 -92 42 -92 99v465h38v-465c0 -36 26 -62 61 -62s61 26 61 62v465h38z" />
    <glyph glyph-name="udieresis" unicode="&#xfc;" 
d="M54 678c0 14 10 25 24 25s25 -11 25 -25s-11 -24 -25 -24s-24 10 -24 24zM165 678c0 14 10 25 24 25s24 -11 24 -25s-10 -24 -24 -24s-24 10 -24 24zM233 555v-555h-38v23c-13 -16 -35 -32 -68 -32c-53 0 -92 42 -92 99v465h38v-465c0 -36 26 -62 61 -62s61 26 61 62v465
h38z" />
    <glyph glyph-name="ugrave" unicode="&#xf9;" 
d="M233 555v-555h-38v23c-13 -16 -35 -32 -68 -32c-53 0 -92 42 -92 99v465h38v-465c0 -36 26 -62 61 -62s61 26 61 62v465h38zM130 625l-71 115h42l63 -115h-34z" />
    <glyph glyph-name="uhungarumlaut" unicode="&#x171;" 
d="M233 555v-555h-38v23c-13 -16 -35 -32 -68 -32c-53 0 -92 42 -92 99v465h38v-465c0 -36 26 -62 61 -62s61 26 61 62v465h38zM57 625l63 115h42l-71 -115h-34zM150 625l63 115h42l-71 -115h-34z" />
    <glyph glyph-name="umacron" unicode="&#x16b;" 
d="M233 555v-555h-38v23c-13 -16 -35 -32 -68 -32c-53 0 -92 42 -92 99v465h38v-465c0 -36 26 -62 61 -62s61 26 61 62v465h38zM56 662v32h155v-32h-155z" />
    <glyph glyph-name="uogonek" unicode="&#x173;" 
d="M233 555v-555h-7c-38 -59 -42 -131 2 -131c6 0 14 2 22 5v-27c-10 -5 -22 -7 -32 -7c-64 0 -73 84 -23 161v22c-13 -16 -35 -32 -68 -32c-53 0 -92 42 -92 99v465h38v-465c0 -36 26 -62 61 -62s61 26 61 62v465h38z" />
    <glyph glyph-name="uring" unicode="&#x16f;" 
d="M62 683c0 41 30 71 72 71c41 0 71 -30 71 -71s-30 -71 -71 -71c-42 0 -72 30 -72 71zM93 683c0 -26 18 -44 41 -44s40 18 40 44c0 25 -17 43 -40 43s-41 -18 -41 -43zM233 555v-555h-38v23c-13 -16 -35 -32 -68 -32c-53 0 -92 42 -92 99v465h38v-465c0 -36 26 -62 61 -62
s61 26 61 62v465h38z" />
    <glyph glyph-name="utilde" unicode="&#x169;" 
d="M233 555v-555h-38v23c-13 -16 -35 -32 -68 -32c-53 0 -92 42 -92 99v465h38v-465c0 -36 26 -62 61 -62s61 26 61 62v465h38zM24 673c23 43 45 58 67 58c44 0 59 -58 86 -58c13 0 26 12 43 41l23 -14c-23 -43 -45 -58 -67 -58c-44 0 -59 58 -86 58c-14 0 -27 -12 -44 -42z
" />
    <glyph glyph-name="wacute" unicode="&#x1e83;" horiz-adv-x="363" 
d="M151 625l63 115h42l-71 -115h-34zM125 555h34l22 -171l23 171h34l-38 -252l38 -227l78 479h37l-93 -555h-38l-40 240l-41 -240h-37l-94 555h38l77 -479l37 227z" />
    <glyph glyph-name="wcircumflex" unicode="&#x175;" horiz-adv-x="363" 
d="M205 740l68 -115h-37l-55 95l-55 -95h-37l69 115h47zM125 555h34l22 -171l23 171h34l-38 -252l38 -227l78 479h37l-93 -555h-38l-40 240l-41 -240h-37l-94 555h38l77 -479l37 227z" />
    <glyph glyph-name="wdieresis" unicode="&#x1e85;" horiz-adv-x="363" 
d="M102 678c0 14 10 25 24 25s25 -11 25 -25s-11 -24 -25 -24s-24 10 -24 24zM213 678c0 14 10 25 24 25s24 -11 24 -25s-10 -24 -24 -24s-24 10 -24 24zM125 555h34l22 -171l23 171h34l-38 -252l38 -227l78 479h37l-93 -555h-38l-40 240l-41 -240h-37l-94 555h38l77 -479
l37 227z" />
    <glyph glyph-name="wgrave" unicode="&#x1e81;" horiz-adv-x="363" 
d="M125 555h34l22 -171l23 171h34l-38 -252l38 -227l78 479h37l-93 -555h-38l-40 240l-41 -240h-37l-94 555h38l77 -479l37 227zM177 625l-71 115h42l63 -115h-34z" />
    <glyph glyph-name="yacute" unicode="&#xfd;" horiz-adv-x="250" 
d="M10 555h38l77 -475l77 475h38l-119 -705h-38l26 149l-5 1zM95 625l63 115h42l-71 -115h-34z" />
    <glyph glyph-name="ycircumflex" unicode="&#x177;" horiz-adv-x="250" 
d="M10 555h38l77 -475l77 475h38l-119 -705h-38l26 149l-5 1zM148 740l68 -115h-37l-55 95l-55 -95h-37l69 115h47z" />
    <glyph glyph-name="ydieresis" unicode="&#xff;" horiz-adv-x="250" 
d="M10 555h38l77 -475l77 475h38l-119 -705h-38l26 149l-5 1zM45 678c0 14 10 25 24 25s25 -11 25 -25s-11 -24 -25 -24s-24 10 -24 24zM156 678c0 14 10 25 24 25s24 -11 24 -25s-10 -24 -24 -24s-24 10 -24 24z" />
    <glyph glyph-name="ygrave" unicode="&#x1ef3;" horiz-adv-x="250" 
d="M10 555h38l77 -475l77 475h38l-119 -705h-38l26 149l-5 1zM121 625l-71 115h42l63 -115h-34z" />
    <glyph glyph-name="zacute" unicode="&#x17a;" horiz-adv-x="213" 
d="M74 625l63 115h42l-71 -115h-34zM18 0v37l137 481h-137v37h177v-37l-137 -481h137v-37h-177z" />
    <glyph glyph-name="zcaron" unicode="&#x17e;" horiz-adv-x="213" 
d="M88 625l-69 115h37l55 -95l55 95h37l-68 -115h-47zM18 0v37l137 481h-137v37h177v-37l-137 -481h137v-37h-177z" />
    <glyph glyph-name="zdotaccent" unicode="&#x17c;" horiz-adv-x="213" 
d="M18 0v37l137 481h-137v37h177v-37l-137 -481h137v-37h-177zM81 678c0 15 11 25 25 25c15 0 25 -10 25 -25c0 -14 -10 -25 -25 -25c-14 0 -25 11 -25 25z" />
    <glyph glyph-name="iacute_jacute" horiz-adv-x="220" 
d="M35 0v555h38v-555h-38zM148 -16v571h37v-575c0 -99 -17 -154 -115 -130v35c67 -18 78 17 78 99zM137 625l62 115h42l-71 -115h-33zM24 625l63 115h42l-71 -115h-34z" />
    <glyph glyph-name="iacute_jacute.salt" horiz-adv-x="215" 
d="M35 0v555h38v-555h-38zM132 625l62 115h42l-71 -115h-33zM24 625l63 115h42l-71 -115h-34zM143 -150v705h37v-705h-37z" />
    <glyph glyph-name="dollar" unicode="$" 
d="M35 213h38v-124c0 -36 26 -62 61 -62s61 26 61 62v106c0 109 -160 179 -160 311v105c0 50 33 89 80 97v65h38v-65c47 -8 80 -47 80 -97v-123h-38v123c0 36 -26 62 -61 62s-61 -26 -61 -62v-105c0 -109 160 -179 160 -311v-106c0 -51 -33 -89 -80 -97v-65h-38v65
c-47 8 -80 46 -80 97v124z" />
    <glyph glyph-name="cent" unicode="&#xa2;" 
d="M35 161v378c0 50 33 89 80 97v64h38v-64c47 -8 80 -47 80 -97v-99h-38v99c0 36 -26 62 -61 62s-61 -26 -61 -62v-378c0 -36 26 -62 61 -62s61 26 61 62v99h38v-99c0 -51 -33 -89 -80 -97v-64h-38v64c-47 8 -80 46 -80 97z" />
    <glyph glyph-name="sterling" unicode="&#xa3;" horiz-adv-x="273" 
d="M18 288v37h40v286c0 57 41 99 98 99s99 -42 99 -99v-123h-37v123c0 36 -26 62 -62 62c-35 0 -61 -26 -61 -62v-286h98v-37h-98v-251h160v-37h-237v37h40v251h-40z" />
    <glyph glyph-name="yen" unicode="&#xa5;" 
d="M15 292v36h87l-94 372h37l89 -355l88 355h38l-94 -372h87v-36h-96l-4 -16v-54h100v-37h-100v-185h-38v185h-100v37h100v54l-4 16h-96z" />
    <glyph glyph-name="florin" unicode="&#x192;" horiz-adv-x="255" 
d="M40 478v37h69v55c0 99 18 154 139 130v-35c-87 17 -102 -12 -102 -94v-56h102v-37h-102v-348c0 -99 -18 -154 -138 -130v35c86 -16 101 12 101 94v349h-69z" />
    <glyph glyph-name="Euro" unicode="&#x20ac;" 
d="M0 385v37h35v189c0 57 42 99 99 99s99 -42 99 -99v-108h-38v108c0 36 -26 62 -61 62s-61 -26 -61 -62v-189h130v-37h-130v-70h130v-37h-130v-189c0 -36 26 -62 61 -62s61 26 61 62v109h38v-109c0 -57 -42 -99 -99 -99s-99 42 -99 99v189h-35v37h35v70h-35z" />
    <glyph glyph-name="currency" unicode="&#xa4;" horiz-adv-x="382" 
d="M20 202l59 59c-20 24 -31 55 -31 89s11 65 31 89l-59 60l23 23l60 -61c23 20 54 32 88 32s65 -12 88 -32l60 61l23 -23l-60 -60c20 -24 32 -55 32 -89s-12 -65 -32 -89l60 -59l-23 -23l-60 60c-23 -20 -54 -31 -88 -31s-65 11 -88 31l-60 -60zM84 350
c0 -62 47 -110 107 -110s107 48 107 110s-47 111 -107 111s-107 -49 -107 -111z" />
    <glyph glyph-name="numbersign" unicode="#" 
d="M137 0l24 214h-86l-24 -214h-33l25 214h-43v33h47l24 207h-43v32h46l25 214h32l-25 -214h86l25 214h33l-25 -214h43v-32h-46l-24 -207h42v-33h-46l-25 -214h-32zM103 454l-24 -207h86l24 207h-86z" />
    <glyph glyph-name="zero" unicode="0" 
d="M35 89v522c0 57 42 99 99 99s99 -42 99 -99v-522c0 -57 -42 -99 -99 -99s-99 42 -99 99zM73 89c0 -36 26 -62 61 -62s61 26 61 62v522c0 36 -26 62 -61 62s-61 -26 -61 -62v-522z" />
    <glyph glyph-name="one" unicode="1" horiz-adv-x="170" 
d="M135 0h-37v663h-80v31l85 6h32v-700z" />
    <glyph glyph-name="two" unicode="2" 
d="M35 0v37l151 414c5 15 9 34 9 48v112c0 36 -26 62 -61 62s-61 -26 -61 -62v-123h-38v123c0 57 42 99 99 99s99 -42 99 -99v-110c0 -21 -6 -45 -14 -67l-144 -397h173v-37h-213z" />
    <glyph glyph-name="three" unicode="3" 
d="M35 213h38v-124c0 -36 26 -62 61 -62s61 26 61 62v181c0 36 -26 62 -61 62h-36v37h36c35 0 61 26 61 62v180c0 36 -26 62 -61 62s-61 -26 -61 -62v-123h-38v123c0 57 42 99 99 99s99 -42 99 -99v-175c0 -38 -18 -69 -47 -86c29 -16 47 -47 47 -85v-176
c0 -57 -42 -99 -99 -99s-99 42 -99 99v124z" />
    <glyph glyph-name="four" unicode="4" 
d="M153 0v153h-143v36l102 511h36l-103 -511h108v161h35v-161h70v-36h-70v-153h-35z" />
    <glyph glyph-name="five" unicode="5" 
d="M73 341h-38v359h198v-37h-163v-239c15 20 39 35 71 35c53 0 92 -42 92 -99v-271c0 -57 -42 -99 -99 -99s-99 42 -99 99v124h38v-124c0 -36 26 -62 61 -62s61 26 61 62v271c0 36 -26 62 -61 62s-61 -26 -61 -62v-19z" />
    <glyph glyph-name="six" unicode="6" 
d="M35 89v522c0 57 42 99 99 99s99 -42 99 -99v-123h-38v123c0 36 -26 62 -61 62s-61 -26 -61 -62v-253c13 17 36 32 68 32c53 0 92 -42 92 -99v-202c0 -57 -42 -99 -99 -99s-99 42 -99 99zM73 89c0 -36 26 -62 61 -62s61 26 61 62v202c0 36 -26 62 -61 62s-61 -26 -61 -62
v-202z" />
    <glyph glyph-name="seven" unicode="7" horiz-adv-x="230" 
d="M62 0l114 663h-158v37h195v-37l-114 -663h-37z" />
    <glyph glyph-name="eight" unicode="8" 
d="M35 89v176c0 38 18 69 47 85c-29 17 -47 48 -47 86v175c0 57 42 99 99 99s99 -42 99 -99v-175c0 -38 -18 -69 -47 -86c29 -16 47 -47 47 -85v-176c0 -57 -42 -99 -99 -99s-99 42 -99 99zM73 89c0 -36 26 -62 61 -62s61 26 61 62v181c0 36 -26 62 -61 62s-61 -26 -61 -62
v-181zM73 431c0 -36 26 -62 61 -62s61 26 61 62v180c0 36 -26 62 -61 62s-61 -26 -61 -62v-180z" />
    <glyph glyph-name="nine" unicode="9" 
d="M35 409v202c0 57 42 99 99 99s99 -42 99 -99v-522c0 -57 -42 -99 -99 -99s-99 42 -99 99v124h38v-124c0 -36 26 -62 61 -62s61 26 61 62v253c-13 -17 -36 -32 -68 -32c-53 0 -92 42 -92 99zM73 409c0 -36 26 -62 61 -62s61 26 61 62v202c0 36 -26 62 -61 62
s-61 -26 -61 -62v-202z" />
    <glyph glyph-name="zero.tnumlnum" horiz-adv-x="316" 
d="M59 89v522c0 57 42 99 99 99s99 -42 99 -99v-522c0 -57 -42 -99 -99 -99s-99 42 -99 99zM97 89c0 -36 26 -62 61 -62s61 26 61 62v522c0 36 -26 62 -61 62s-61 -26 -61 -62v-522z" />
    <glyph glyph-name="zero.tnumlnum..zero" horiz-adv-x="316" 
d="M59 89v522c0 57 42 99 99 99s99 -42 99 -99v-522c0 -57 -42 -99 -99 -99s-99 42 -99 99zM97 89c0 -36 26 -62 61 -62s61 26 61 62v334l-122 -212v-122zM97 277l122 212v122c0 36 -26 62 -61 62s-61 -26 -61 -62v-334z" />
    <glyph glyph-name="one.tnumlnum" horiz-adv-x="316" 
d="M59 0v37h80v626h-80v37h118v-663h80v-37h-198z" />
    <glyph glyph-name="two.tnumlnum" horiz-adv-x="316" 
d="M52 0v37l150 414c6 15 10 34 10 48v112c0 36 -26 62 -61 62c-36 0 -62 -26 -62 -62v-123h-37v123c0 57 42 99 99 99s98 -42 98 -99v-110c0 -21 -5 -45 -13 -67l-145 -397h173v-37h-212z" />
    <glyph glyph-name="three.tnumlnum" horiz-adv-x="316" 
d="M59 213h38v-124c0 -36 26 -62 61 -62s61 26 61 62v181c0 36 -26 62 -61 62h-36v37h36c35 0 61 26 61 62v180c0 36 -26 62 -61 62s-61 -26 -61 -62v-123h-38v123c0 57 42 99 99 99s99 -42 99 -99v-175c0 -38 -18 -69 -47 -86c29 -16 47 -47 47 -85v-176
c0 -57 -42 -99 -99 -99s-99 42 -99 99v124z" />
    <glyph glyph-name="four.tnumlnum" horiz-adv-x="316" 
d="M177 0v153h-143v36l139 511h39v-511h70v-36h-70v-153h-35zM67 189h110v407z" />
    <glyph glyph-name="five.tnumlnum" horiz-adv-x="316" 
d="M97 341h-38v359h198v-37h-163v-239c15 20 39 35 71 35c53 0 92 -42 92 -99v-271c0 -57 -42 -99 -99 -99s-99 42 -99 99v124h38v-124c0 -36 26 -62 61 -62s61 26 61 62v271c0 36 -26 62 -61 62s-61 -26 -61 -62v-19z" />
    <glyph glyph-name="six.tnumlnum" horiz-adv-x="316" 
d="M59 89v522c0 57 42 99 99 99s99 -42 99 -99v-123h-38v123c0 36 -26 62 -61 62s-61 -26 -61 -62v-253c13 17 36 32 68 32c53 0 92 -42 92 -99v-202c0 -57 -42 -99 -99 -99s-99 42 -99 99zM97 89c0 -36 26 -62 61 -62s61 26 61 62v202c0 36 -26 62 -61 62s-61 -26 -61 -62
v-202z" />
    <glyph glyph-name="seven.tnumlnum" horiz-adv-x="316" 
d="M108 0l117 663h-133v-175h-38v212h208v-37l-116 -663h-38z" />
    <glyph glyph-name="eight.tnumlnum" horiz-adv-x="316" 
d="M59 89v176c0 38 18 69 47 85c-29 17 -47 48 -47 86v175c0 57 42 99 99 99s99 -42 99 -99v-175c0 -38 -18 -69 -47 -86c29 -16 47 -47 47 -85v-176c0 -57 -42 -99 -99 -99s-99 42 -99 99zM97 89c0 -36 26 -62 61 -62s61 26 61 62v181c0 36 -26 62 -61 62s-61 -26 -61 -62
v-181zM97 431c0 -36 26 -62 61 -62s61 26 61 62v180c0 36 -26 62 -61 62s-61 -26 -61 -62v-180z" />
    <glyph glyph-name="nine.tnumlnum" horiz-adv-x="316" 
d="M59 409v202c0 57 42 99 99 99s99 -42 99 -99v-522c0 -57 -42 -99 -99 -99s-99 42 -99 99v124h38v-124c0 -36 26 -62 61 -62s61 26 61 62v253c-13 -17 -36 -32 -68 -32c-53 0 -92 42 -92 99zM97 409c0 -36 26 -62 61 -62s61 26 61 62v202c0 36 -26 62 -61 62
s-61 -26 -61 -62v-202z" />
    <glyph glyph-name="asciicircum" unicode="^" horiz-adv-x="290" 
d="M260 374h-39l-77 392l-77 -392h-37l94 470h42z" />
    <glyph glyph-name="asciitilde" unicode="~" horiz-adv-x="335" 
d="M10 332c30 60 59 79 89 79c59 0 93 -79 139 -79c20 0 39 16 62 59l25 -19c-30 -59 -59 -78 -88 -78c-60 0 -94 78 -139 78c-21 0 -39 -15 -62 -58z" />
    <glyph glyph-name="periodcentered" unicode="&#xb7;" horiz-adv-x="126" 
d="M35 350c0 16 12 28 28 28s28 -12 28 -28s-12 -28 -28 -28s-28 12 -28 28z" />
    <glyph glyph-name="plus" unicode="+" horiz-adv-x="335" 
d="M149 369v126h37v-126h121v-37h-121v-126h-37v126h-121v37h121z" />
    <glyph glyph-name="minus" unicode="&#x2212;" horiz-adv-x="335" 
d="M28 369h279v-37h-279v37z" />
    <glyph glyph-name="plusminus" unicode="&#xb1;" horiz-adv-x="335" 
d="M149 369v126h37v-126h121v-37h-121v-126h-37v126h-121v37h121zM28 37h279v-37h-279v37z" />
    <glyph glyph-name="multiply" unicode="&#xd7;" horiz-adv-x="335" 
d="M141 350l-104 104l27 27l103 -104l100 100l27 -26l-101 -101l103 -102l-26 -26l-103 102l-100 -99l-25 26z" />
    <glyph glyph-name="divide" unicode="&#xf7;" horiz-adv-x="335" 
d="M28 369h279v-37h-279v37zM141 158c0 15 11 26 26 26c16 0 27 -11 27 -26s-11 -27 -27 -27c-15 0 -26 12 -26 27zM141 544c0 15 11 26 26 26c16 0 27 -11 27 -26c0 -16 -11 -27 -27 -27c-15 0 -26 11 -26 27z" />
    <glyph glyph-name="less" unicode="&#x3c;" horiz-adv-x="335" 
d="M307 218l-279 114v38l279 113v-39l-232 -93l232 -92v-41z" />
    <glyph glyph-name="greater" unicode="&#x3e;" horiz-adv-x="335" 
d="M28 483l279 -113v-38l-279 -114v40l232 92l-232 93v40z" />
    <glyph glyph-name="lessequal" unicode="&#x2264;" horiz-adv-x="335" 
d="M307 218l-279 114v38l279 113v-39l-232 -93l232 -92v-41zM28 37h279v-37h-279v37z" />
    <glyph glyph-name="greaterequal" unicode="&#x2265;" horiz-adv-x="335" 
d="M28 483l279 -113v-38l-279 -114v40l232 92l-232 93v40zM28 37h279v-37h-279v37z" />
    <glyph glyph-name="equal" unicode="=" horiz-adv-x="335" 
d="M28 448h279v-37h-279v37zM28 290h279v-36h-279v36z" />
    <glyph glyph-name="notequal" unicode="&#x2260;" horiz-adv-x="335" 
d="M28 290h99l41 121h-140v37h152l54 159h40l-54 -159h87v-37h-100l-41 -121h141v-36h-153l-54 -160h-39l54 160h-87v36z" />
    <glyph glyph-name="approxequal" unicode="&#x2248;" horiz-adv-x="335" 
d="M10 251c30 59 59 79 89 79c59 0 93 -79 139 -79c20 0 39 15 62 58l25 -18c-30 -59 -59 -79 -88 -79c-60 0 -94 79 -139 79c-21 0 -39 -15 -62 -58zM10 413c30 60 59 79 89 79c59 0 93 -78 139 -78c20 0 39 15 62 58l25 -18c-30 -60 -59 -79 -88 -79c-60 0 -94 78 -139 78
c-21 0 -39 -15 -62 -58z" />
    <glyph glyph-name="logicalnot" unicode="&#xac;" horiz-adv-x="335" 
d="M28 369h279v-163h-37v126h-242v37z" />
    <glyph glyph-name="bar" unicode="|" horiz-adv-x="173" 
d="M70 -100v900h33v-900h-33z" />
    <glyph glyph-name="brokenbar" unicode="&#xa6;" horiz-adv-x="173" 
d="M70 459v341h33v-341h-33zM70 -100v341h33v-341h-33z" />
    <glyph glyph-name="infinity" unicode="&#x221e;" horiz-adv-x="514" 
d="M321 269l-64 61l-64 -61c-16 -16 -41 -35 -72 -35c-55 0 -93 40 -93 92v49c0 53 38 93 93 93c31 0 56 -20 72 -35l64 -63l64 63c16 15 41 35 72 35c55 0 93 -40 93 -93v-49c0 -52 -38 -92 -93 -92c-31 0 -56 19 -72 35zM123 268c24 0 42 15 55 28l57 54l-57 55
c-13 13 -31 29 -55 29c-37 0 -62 -28 -62 -63v-40c0 -36 25 -63 62 -63zM336 405l-57 -55l57 -54c13 -13 31 -28 54 -28c38 0 63 27 63 63v40c0 35 -25 63 -63 63c-23 0 -41 -16 -54 -29z" />
    <glyph glyph-name="partialdiff" unicode="&#x2202;" 
d="M109 740h38c54 -79 86 -170 86 -275v-376c0 -57 -42 -99 -99 -99s-99 42 -99 99v376c0 57 39 99 92 99c31 0 49 -15 63 -30c-9 72 -36 143 -81 206zM195 89v376c0 36 -26 62 -61 62s-61 -26 -61 -62v-376c0 -36 26 -62 61 -62s61 26 61 62z" />
    <glyph glyph-name="uni00B5" unicode="&#xb5;" 
d="M35 -150v705h38v-465c0 -36 26 -62 61 -62s61 26 61 62v465h38v-465c0 -57 -39 -99 -92 -99c-33 0 -55 16 -68 32v-173h-38z" />
    <glyph glyph-name="pi" unicode="&#x3c0;" horiz-adv-x="325" 
d="M224 0v518h-123v-518h-37v518h-36v37h270v-37h-37v-518h-37z" />
    <glyph glyph-name="uni2206" unicode="&#x2206;" 
d="M8 0l107 700h38l107 -700h-252zM49 37h170l-85 560z" />
    <glyph glyph-name="product" unicode="&#x220f;" 
d="M35 0v700h198v-700h-38v663h-122v-663h-38z" />
    <glyph glyph-name="summation" unicode="&#x2211;" horiz-adv-x="225" 
d="M156 350l-82 -313h134v-37h-173v37l81 313l-81 313v37h173v-37h-134z" />
    <glyph glyph-name="uni2126" unicode="&#x2126;" 
d="M8 0v37h68l-27 77c-8 22 -14 46 -14 67v430c0 57 42 99 99 99s99 -42 99 -99v-430c0 -21 -6 -45 -14 -67l-27 -77h68v-37h-105v37l31 89c5 15 9 34 9 48v437c0 36 -26 62 -61 62s-61 -26 -61 -62v-437c0 -14 4 -33 9 -48l31 -89v-37h-105z" />
    <glyph glyph-name="radical" unicode="&#x221a;" 
d="M0 518v37h67l67 -452l88 597h38l-107 -700h-38l-80 518h-35z" />
    <glyph glyph-name="integral" unicode="&#x222b;" horiz-adv-x="255" 
d="M109 129v441c0 99 18 154 139 130v-35c-87 17 -102 -12 -102 -94v-441c0 -99 -18 -154 -138 -130v35c86 -16 101 12 101 94z" />
    <glyph glyph-name="emptyset" unicode="&#x2205;" horiz-adv-x="471" 
d="M11 149l78 78c-28 32 -44 75 -44 123c0 107 83 190 190 190c47 0 90 -16 123 -44l79 79l23 -23l-79 -79c28 -33 45 -76 45 -123c0 -107 -83 -189 -191 -189c-48 0 -90 16 -123 43l-78 -78zM81 350c0 -38 12 -72 32 -99l221 221c-26 23 -61 36 -99 36
c-87 0 -154 -69 -154 -158zM390 350c0 38 -12 72 -33 99l-221 -221c26 -22 61 -35 99 -35c87 0 155 68 155 157z" />
    <glyph glyph-name="degree" unicode="&#xb0;" horiz-adv-x="261" 
d="M35 615c0 55 40 95 95 95s96 -40 96 -95s-41 -95 -96 -95s-95 40 -95 95zM66 615c0 -38 28 -65 64 -65c37 0 64 27 64 65c0 37 -27 65 -64 65c-36 0 -64 -28 -64 -65z" />
    <glyph glyph-name="ordfeminine" unicode="&#xaa;" horiz-adv-x="219" 
d="M186 634v-349h-34v13c-13 -13 -30 -19 -48 -19c-41 0 -71 32 -71 76v101c0 44 30 76 71 76c21 0 37 -8 48 -19v121c0 25 -18 43 -43 43c-24 0 -42 -18 -42 -43v-61h-34v61c0 44 32 76 76 76s77 -32 77 -76zM67 456v-101c0 -25 18 -43 42 -43c25 0 43 18 43 43v101
c0 25 -18 43 -43 43c-24 0 -42 -18 -42 -43z" />
    <glyph glyph-name="ordmasculine" unicode="&#xba;" horiz-adv-x="219" 
d="M33 354v280c0 44 32 76 76 76s77 -32 77 -76v-280c0 -44 -33 -76 -77 -76s-76 32 -76 76zM67 634v-280c0 -25 18 -43 42 -43c25 0 43 18 43 43v280c0 25 -18 43 -43 43c-24 0 -42 -18 -42 -43z" />
    <glyph glyph-name="quotesingle" unicode="'" horiz-adv-x="148" 
d="M60 449l-5 251h38l-5 -251h-28z" />
    <glyph glyph-name="quotedbl" unicode="&#x22;" horiz-adv-x="240" 
d="M60 449l-5 251h38l-5 -251h-28zM153 449l-5 251h37l-5 -251h-27z" />
    <glyph glyph-name="underscore" unicode="_" horiz-adv-x="510" 
d="M505 -43h-500v33h500v-33z" />
    <glyph glyph-name="emdash" unicode="&#x2014;" horiz-adv-x="1010" 
d="M30 260v36h950v-36h-950z" />
    <glyph glyph-name="endash" unicode="&#x2013;" horiz-adv-x="510" 
d="M30 260v36h450v-36h-450z" />
    <glyph glyph-name="hyphen" unicode="-" horiz-adv-x="240" 
d="M30 260v36h180v-36h-180z" />
    <glyph glyph-name="uni00AD" unicode="&#xad;" horiz-adv-x="240" 
d="M30 260v36h180v-36h-180z" />
    <glyph glyph-name="guilsinglleft" unicode="&#x2039;" horiz-adv-x="164" 
d="M107 104l-89 174l89 174h39l-89 -174l89 -174h-39z" />
    <glyph glyph-name="guilsinglright" unicode="&#x203a;" horiz-adv-x="164" 
d="M57 452l89 -174l-89 -174h-39l89 174l-89 174h39z" />
    <glyph glyph-name="guillemotleft" unicode="&#xab;" horiz-adv-x="261" 
d="M107 104l-89 174l89 174h39l-89 -174l89 -174h-39zM205 104l-90 174l90 174h39l-89 -174l89 -174h-39z" />
    <glyph glyph-name="guillemotright" unicode="&#xbb;" horiz-adv-x="261" 
d="M155 452l89 -174l-89 -174h-40l90 174l-90 174h40zM57 452l89 -174l-89 -174h-39l89 174l-89 174h39z" />
    <glyph glyph-name="quotesinglbase" unicode="&#x201a;" horiz-adv-x="126" 
d="M35 -115l14 205h42l-27 -205h-29z" />
    <glyph glyph-name="quotedblbase" unicode="&#x201e;" horiz-adv-x="201" 
d="M35 -115l14 205h42l-27 -205h-29zM110 -115l14 205h42l-27 -205h-29z" />
    <glyph glyph-name="quoteright" unicode="&#x2019;" horiz-adv-x="126" 
d="M35 575l14 205h42l-27 -205h-29z" />
    <glyph glyph-name="quotedblright" unicode="&#x201d;" horiz-adv-x="201" 
d="M35 575l14 205h42l-27 -205h-29zM110 575l14 205h42l-27 -205h-29z" />
    <glyph glyph-name="quoteleft" unicode="&#x2018;" horiz-adv-x="126" 
d="M91 780l-13 -205h-43l28 205h28z" />
    <glyph glyph-name="quotedblleft" unicode="&#x201c;" horiz-adv-x="201" 
d="M166 780l-13 -205h-43l28 205h28zM91 780l-13 -205h-43l28 205h28z" />
    <glyph glyph-name="comma" unicode="," horiz-adv-x="126" 
d="M35 -115l14 205h42l-27 -205h-29z" />
    <glyph glyph-name="period" unicode="." horiz-adv-x="126" 
d="M35 23c0 16 12 28 28 28s28 -12 28 -28s-12 -28 -28 -28s-28 12 -28 28z" />
    <glyph glyph-name="colon" unicode=":" horiz-adv-x="126" 
d="M35 23c0 16 12 28 28 28s28 -12 28 -28s-12 -28 -28 -28s-28 12 -28 28zM35 532c0 16 12 28 28 28s28 -12 28 -28s-12 -28 -28 -28s-28 12 -28 28z" />
    <glyph glyph-name="semicolon" unicode=";" horiz-adv-x="126" 
d="M35 -115l14 205h42l-27 -205h-29zM35 532c0 16 12 28 28 28s28 -12 28 -28s-12 -28 -28 -28s-28 12 -28 28z" />
    <glyph glyph-name="ellipsis" unicode="&#x2026;" horiz-adv-x="516" 
d="M425 23c0 16 12 28 28 28s28 -12 28 -28s-12 -28 -28 -28s-28 12 -28 28zM230 23c0 16 12 28 28 28s28 -12 28 -28s-12 -28 -28 -28s-28 12 -28 28zM35 23c0 16 12 28 28 28s28 -12 28 -28s-12 -28 -28 -28s-28 12 -28 28z" />
    <glyph glyph-name="question" unicode="?" 
d="M150 191h-32l-1 103c0 116 78 115 78 212v105c0 36 -26 62 -61 62s-61 -26 -61 -62v-123h-38v123c0 57 42 99 99 99s99 -42 99 -99v-105c0 -120 -82 -113 -82 -212zM106 23c0 16 12 28 28 28s28 -12 28 -28s-12 -28 -28 -28s-28 12 -28 28z" />
    <glyph glyph-name="questiondown" unicode="&#xbf;" 
d="M118 364h32l1 -103c0 -116 -78 -115 -78 -212v-105c0 -36 26 -62 61 -62s61 26 61 62v124h38v-124c0 -57 -42 -99 -99 -99s-99 42 -99 99v105c0 120 82 114 82 212zM162 532c0 -16 -12 -28 -28 -28s-28 12 -28 28s12 28 28 28s28 -12 28 -28z" />
    <glyph glyph-name="exclam" unicode="!" horiz-adv-x="169" 
d="M68 191l-5 509h43l-5 -509h-33zM57 23c0 16 12 28 28 28s28 -12 28 -28s-12 -28 -28 -28s-28 12 -28 28z" />
    <glyph glyph-name="exclamdown" unicode="&#xa1;" horiz-adv-x="169" 
d="M101 364l5 -509h-43l5 509h33zM113 532c0 -16 -12 -28 -28 -28s-28 12 -28 28s12 28 28 28s28 -12 28 -28z" />
    <glyph glyph-name="parenleft" unicode="(" horiz-adv-x="174" 
d="M159 -100h-38c-54 129 -86 279 -86 450s32 321 86 450h38c-56 -131 -86 -281 -86 -450s30 -319 86 -450z" />
    <glyph glyph-name="parenright" unicode=")" horiz-adv-x="174" 
d="M15 800h38c54 -129 86 -279 86 -450s-32 -321 -86 -450h-38c56 131 86 281 86 450s-30 319 -86 450z" />
    <glyph glyph-name="bracketleft" unicode="[" horiz-adv-x="174" 
d="M55 -100v900h119v-37h-81v-826h81v-37h-119z" />
    <glyph glyph-name="bracketright" unicode="]" horiz-adv-x="174" 
d="M0 -100v37h81v826h-81v37h119v-900h-119z" />
    <glyph glyph-name="braceleft" unicode="{" horiz-adv-x="174" 
d="M172 -63v-37c-64 0 -105 43 -105 108v256c0 40 -28 67 -66 68v37c38 1 66 28 66 68v256c0 64 41 107 105 107v-37c-39 0 -67 -28 -67 -68v-257c0 -40 -21 -72 -56 -87c34 -15 56 -48 56 -88v-258c0 -40 28 -68 67 -68z" />
    <glyph glyph-name="braceright" unicode="}" horiz-adv-x="174" 
d="M1 763v37c65 0 105 -43 105 -107v-256c0 -40 29 -67 66 -68v-37c-37 -1 -66 -28 -66 -68v-256c0 -65 -40 -108 -105 -108v37c39 0 68 28 68 68v258c0 40 21 73 55 88c-33 14 -55 47 -55 87v257c0 40 -29 68 -68 68z" />
    <glyph glyph-name="slash" unicode="/" horiz-adv-x="176" 
d="M154 800l-99 -900h-32l99 900h32z" />
    <glyph glyph-name="backslash" unicode="\" horiz-adv-x="176" 
d="M122 -100l-99 900h32l99 -900h-32z" />
    <glyph glyph-name="fraction" unicode="&#x2044;" horiz-adv-x="109" 
d="M-88 0l251 700h34l-251 -700h-34z" />
    <glyph glyph-name="asterisk" unicode="*" horiz-adv-x="267" 
d="M18 616l10 32l92 -33l-3 98h33l-3 -98l92 33l10 -32l-93 -27l59 -77l-26 -20l-56 81l-55 -81l-26 20l59 77z" />
    <glyph glyph-name="bullet" unicode="&#x2022;" horiz-adv-x="270" 
d="M38 350c0 58 40 98 97 98c58 0 98 -40 98 -98c0 -57 -40 -97 -98 -97c-57 0 -97 40 -97 97z" />
    <glyph glyph-name="section" unicode="&#xa7;" 
d="M35 324v58c0 51 37 90 81 91c-52 36 -81 68 -81 123v15c0 57 42 99 99 99s99 -42 99 -99v-52h-38v52c0 36 -26 62 -61 62s-61 -26 -61 -62v-15c0 -111 160 -102 160 -220v-58c0 -51 -37 -90 -81 -91c52 -36 81 -68 81 -123v-15c0 -57 -42 -99 -99 -99s-99 42 -99 99v52
h38v-52c0 -36 26 -62 61 -62s61 26 61 62v15c0 111 -160 102 -160 220zM73 318c0 -36 26 -62 61 -62s61 26 61 62v64c0 36 -26 62 -61 62s-61 -26 -61 -62v-64z" />
    <glyph glyph-name="dagger" unicode="&#x2020;" horiz-adv-x="337" 
d="M189 -60h-40l5 495l-136 -5v39l136 -5l-5 236h40l-5 -236l136 5v-39l-136 5z" />
    <glyph glyph-name="daggerdbl" unicode="&#x2021;" horiz-adv-x="337" 
d="M149 320l5 125l-136 -5v39l136 -5l-5 226h40l-5 -226l136 5v-39l-136 5l5 -125l-5 -124l136 5v-40l-136 5l5 -226h-40l5 226l-136 -5v40l136 -5z" />
    <glyph glyph-name="paragraph" unicode="&#xb6;" horiz-adv-x="338" 
d="M303 700v-700h-30v663h-70v-663h-30v397c-95 0 -155 50 -155 152s60 151 155 151h130z" />
    <glyph glyph-name="copyright" unicode="&#xa9;" horiz-adv-x="472" 
d="M20 350c0 218 85 360 216 360s216 -142 216 -360s-85 -360 -216 -360s-216 142 -216 360zM55 350c0 -198 71 -326 181 -326s181 128 181 326c0 197 -71 325 -181 325s-181 -128 -181 -325zM160 210v280c0 44 32 76 76 76s76 -32 76 -76v-74h-34v74c0 25 -18 43 -42 43
s-42 -18 -42 -43v-280c0 -25 18 -43 42 -43s42 18 42 43v74h34v-74c0 -44 -32 -76 -76 -76s-76 32 -76 76z" />
    <glyph glyph-name="uni2117" unicode="&#x2117;" horiz-adv-x="472" 
d="M20 350c0 218 85 360 216 360s216 -142 216 -360s-85 -360 -216 -360s-216 142 -216 360zM55 350c0 -198 71 -326 181 -326s181 128 181 326c0 197 -71 325 -181 325s-181 -128 -181 -325zM170 139v422h76c44 0 76 -32 76 -76v-125c0 -45 -32 -77 -76 -77h-44v-144h-32z
M204 317h42c24 0 42 18 42 43v125c0 25 -18 43 -42 43h-42v-211z" />
    <glyph glyph-name="registered" unicode="&#xae;" horiz-adv-x="352" 
d="M20 557c0 86 68 153 156 153s156 -67 156 -153s-68 -153 -156 -153s-156 67 -156 153zM49 557c0 -71 56 -127 127 -127s127 56 127 127s-56 127 -127 127s-127 -56 -127 -127zM135 469v176h49c20 0 34 -15 34 -34v-38c0 -13 -6 -22 -15 -27c9 -6 15 -15 15 -28v-49h-28
v50c0 7 -5 13 -12 13h-15v-63h-28zM163 559h15c7 0 12 5 12 12v34c0 7 -5 12 -12 12h-15v-58z" />
    <glyph glyph-name="trademark" unicode="&#x2122;" horiz-adv-x="362" 
d="M64 279v392h-55v29h138v-29h-54v-392h-29zM166 279v421h31l57 -350l55 350h33v-421h-26v327l-52 -327h-20l-52 327v-327h-26z" />
    <glyph glyph-name="at" unicode="@" horiz-adv-x="559" 
d="M221 370v-193c0 -36 26 -62 61 -62s61 26 61 62v193c0 36 -26 62 -61 62s-61 -26 -61 -62zM411 -4l24 -25c-41 -34 -94 -53 -153 -53c-138 0 -239 101 -239 239v243c0 137 101 238 239 238s239 -101 239 -238v-234c0 -49 -40 -89 -89 -89c-33 0 -63 18 -78 48
c-17 -28 -42 -47 -79 -47c-53 0 -92 42 -92 99v193c0 57 39 99 92 99c33 0 55 -16 68 -32v23h38v-295c0 -29 23 -51 51 -51s51 22 51 51v236c0 116 -85 202 -201 202s-201 -86 -201 -202v-245c0 -117 85 -203 201 -203c50 0 95 17 129 43z" />
    <glyph glyph-name="ampersand" unicode="&#x26;" horiz-adv-x="275" 
d="M275 332h-42v-243c0 -57 -42 -99 -99 -99s-99 42 -99 99v176c0 38 18 69 47 85c-29 17 -47 48 -47 86v175c0 57 42 99 99 99s99 -42 99 -99v-123h-38v123c0 36 -26 62 -61 62s-61 -26 -61 -62v-180c0 -36 26 -62 61 -62h141v-37zM134 27c35 0 61 26 61 62v243h-61
c-35 0 -61 -26 -61 -62v-181c0 -36 26 -62 61 -62z" />
    <glyph glyph-name="emdash.case" horiz-adv-x="1010" 
d="M30 332v37h950v-37h-950z" />
    <glyph glyph-name="endash.case" horiz-adv-x="510" 
d="M30 332v37h450v-37h-450z" />
    <glyph glyph-name="hyphen.case" horiz-adv-x="240" 
d="M30 332v37h180v-37h-180z" />
    <glyph glyph-name="guilsinglleft.case" horiz-adv-x="164" 
d="M107 176l-89 174l89 174h39l-89 -174l89 -174h-39z" />
    <glyph glyph-name="guilsinglright.case" horiz-adv-x="164" 
d="M57 524l89 -174l-89 -174h-39l89 174l-89 174h39z" />
    <glyph glyph-name="guillemotleft.case" horiz-adv-x="261" 
d="M107 176l-89 174l89 174h39l-89 -174l89 -174h-39zM205 176l-90 174l90 174h39l-89 -174l89 -174h-39z" />
    <glyph glyph-name="guillemotright.case" horiz-adv-x="261" 
d="M155 524l89 -174l-89 -174h-40l90 174l-90 174h40zM57 524l89 -174l-89 -174h-39l89 174l-89 174h39z" />
    <glyph glyph-name="questiondown.case" 
d="M118 509h32l1 -103c0 -116 -78 -115 -78 -212v-105c0 -36 26 -62 61 -62s61 26 61 62v124h38v-124c0 -57 -42 -99 -99 -99s-99 42 -99 99v105c0 120 82 114 82 212zM162 677c0 -16 -12 -28 -28 -28s-28 12 -28 28s12 28 28 28s28 -12 28 -28z" />
    <glyph glyph-name="exclamdown.case" horiz-adv-x="169" 
d="M101 509l5 -509h-43l5 509h33zM113 677c0 -16 -12 -28 -28 -28s-28 12 -28 28s12 28 28 28s28 -12 28 -28z" />
    <glyph glyph-name="at.case" horiz-adv-x="559" 
d="M221 442v-193c0 -36 26 -62 61 -62s61 26 61 62v193c0 36 -26 62 -61 62s-61 -26 -61 -62zM411 68l24 -25c-41 -34 -94 -53 -153 -53c-138 0 -239 101 -239 239v243c0 137 101 238 239 238s239 -101 239 -238v-234c0 -49 -40 -89 -89 -89c-33 0 -63 18 -78 48
c-17 -28 -42 -47 -79 -47c-53 0 -92 42 -92 99v193c0 57 39 99 92 99c33 0 55 -16 68 -32v23h38v-295c0 -29 23 -51 51 -51s51 22 51 51v236c0 116 -85 202 -201 202s-201 -86 -201 -202v-245c0 -117 85 -203 201 -203c50 0 95 17 129 43z" />
    <glyph glyph-name="onesuperior" unicode="&#xb9;" horiz-adv-x="183" 
d="M35 350v32h40v286h-40v32h73v-318h40v-32h-113z" />
    <glyph glyph-name="twosuperior" unicode="&#xb2;" horiz-adv-x="181" 
d="M35 350v32l78 191c3 7 3 14 3 20v55c0 14 -10 25 -24 25s-24 -11 -24 -25v-61h-33v61c0 33 24 57 57 57s57 -24 57 -57v-53c0 -12 -3 -25 -7 -37l-72 -176h86v-32h-121z" />
    <glyph glyph-name="threesuperior" unicode="&#xb3;" horiz-adv-x="184" 
d="M35 462h33v-60c0 -14 10 -25 24 -25s24 11 24 25v83c0 14 -11 23 -24 23h-20v33h20c13 0 24 10 24 24v83c0 14 -10 25 -24 25s-24 -11 -24 -25v-61h-33v61c0 33 24 57 57 57s57 -24 57 -57v-75c0 -22 -11 -39 -28 -48c17 -9 28 -27 28 -48v-75c0 -33 -24 -57 -57 -57
s-57 24 -57 57v60z" />
    <glyph glyph-name="onequarter" unicode="&#xbc;" horiz-adv-x="355" 
d="M35 350v32h40v286h-40v32h73v-318h40v-32h-113zM275 0v72h-73v31l48 247h30l-47 -246h42v71h30v-71h30v-32h-30v-72h-30zM40 0l251 700h35l-251 -700h-35z" />
    <glyph glyph-name="onehalf" unicode="&#xbd;" horiz-adv-x="363" 
d="M35 350v32h40v286h-40v32h73v-318h40v-32h-113zM217 0v32l78 191c3 7 3 14 3 20v55c0 14 -10 25 -24 25s-24 -11 -24 -25v-61h-33v61c0 33 24 57 57 57s57 -24 57 -57v-53c0 -12 -3 -25 -7 -37l-72 -176h86v-32h-121zM40 0l251 700h35l-251 -700h-35z" />
    <glyph glyph-name="threequarters" unicode="&#xbe;" horiz-adv-x="355" 
d="M35 462h33v-60c0 -14 10 -25 24 -25s24 11 24 25v83c0 14 -11 23 -24 23h-20v33h20c13 0 24 10 24 24v83c0 14 -10 25 -24 25s-24 -11 -24 -25v-61h-33v61c0 33 24 57 57 57s57 -24 57 -57v-75c0 -22 -11 -39 -28 -48c17 -9 28 -27 28 -48v-75c0 -33 -24 -57 -57 -57
s-57 24 -57 57v60zM275 0v72h-73v31l48 247h30l-47 -246h42v71h30v-71h30v-32h-30v-72h-30zM40 0l251 700h35l-251 -700h-35z" />
    <glyph glyph-name="percent" unicode="%" horiz-adv-x="366" 
d="M35 402v246c0 33 24 57 57 57s57 -24 57 -57v-246c0 -33 -24 -57 -57 -57s-57 24 -57 57zM68 402c0 -14 10 -25 24 -25s24 11 24 25v246c0 14 -10 25 -24 25s-24 -11 -24 -25v-246zM217 52v246c0 33 24 57 57 57s57 -24 57 -57v-246c0 -33 -24 -57 -57 -57s-57 24 -57 57
zM250 52c0 -14 10 -25 24 -25s24 11 24 25v246c0 14 -10 25 -24 25c-13 0 -24 -11 -24 -25v-246zM40 0l251 700h35l-251 -700h-35z" />
    <glyph glyph-name="perthousand" unicode="&#x2030;" horiz-adv-x="516" 
d="M35 402v246c0 33 24 57 57 57s57 -24 57 -57v-246c0 -33 -24 -57 -57 -57s-57 24 -57 57zM68 402c0 -14 10 -25 24 -25s24 11 24 25v246c0 14 -10 25 -24 25s-24 -11 -24 -25v-246zM217 52v246c0 33 24 57 57 57s57 -24 57 -57v-246c0 -33 -24 -57 -57 -57s-57 24 -57 57
zM250 52c0 -14 10 -25 24 -25s24 11 24 25v246c0 14 -10 25 -24 25c-13 0 -24 -11 -24 -25v-246zM40 0l251 700h35l-251 -700h-35zM367 52v246c0 33 24 57 57 57s57 -24 57 -57v-246c0 -33 -24 -57 -57 -57s-57 24 -57 57zM400 52c0 -14 10 -25 24 -25s24 11 24 25v246
c0 14 -10 25 -24 25c-13 0 -24 -11 -24 -25v-246z" />
    <glyph glyph-name="acute" unicode="&#xb4;" horiz-adv-x="145" 
d="M20 625l63 115h42l-71 -115h-34z" />
    <glyph glyph-name="breve" unicode="&#x2d8;" horiz-adv-x="209" 
d="M157 740h32c0 -67 -17 -120 -84 -120c-68 0 -85 53 -85 120h33c0 -50 9 -90 52 -90c42 0 52 40 52 90z" />
    <glyph glyph-name="caron" unicode="&#x2c7;" horiz-adv-x="224" 
d="M89 625l-69 115h37l55 -95l55 95h37l-68 -115h-47z" />
    <glyph glyph-name="caron.salt" horiz-adv-x="98" 
d="M20 590l24 150h38l-34 -150h-28z" />
    <glyph glyph-name="cedilla" unicode="&#xb8;" horiz-adv-x="135" 
d="M47 -2l33 -5c-7 -10 -10 -18 -10 -24c0 -28 47 -38 47 -82c0 -28 -27 -47 -59 -47c-12 0 -25 3 -38 9v29c11 -6 20 -8 29 -8c17 0 30 8 30 22c0 28 -42 36 -42 74c0 8 4 22 10 32z" />
    <glyph glyph-name="circumflex" unicode="&#x2c6;" horiz-adv-x="224" 
d="M136 740l68 -115h-37l-55 95l-55 -95h-37l69 115h47z" />
    <glyph glyph-name="commaaccent" horiz-adv-x="96" 
d="M20 -150l18 102h38l-24 -102h-32z" />
    <glyph glyph-name="dieresis" unicode="&#xa8;" horiz-adv-x="199" 
d="M20 678c0 14 10 25 24 25s25 -11 25 -25s-11 -24 -25 -24s-24 10 -24 24zM131 678c0 14 10 25 24 25s24 -11 24 -25s-10 -24 -24 -24s-24 10 -24 24z" />
    <glyph glyph-name="dotaccent" unicode="&#x2d9;" horiz-adv-x="90" 
d="M20 678c0 15 11 25 25 25c15 0 25 -10 25 -25c0 -14 -10 -25 -25 -25c-14 0 -25 11 -25 25z" />
    <glyph glyph-name="grave" unicode="`" horiz-adv-x="145" 
d="M91 625l-71 115h42l63 -115h-34z" />
    <glyph glyph-name="hungarumlaut" unicode="&#x2dd;" horiz-adv-x="233" 
d="M20 625l63 115h42l-71 -115h-34zM113 625l63 115h42l-71 -115h-34z" />
    <glyph glyph-name="macron" unicode="&#xaf;" horiz-adv-x="195" 
d="M20 662v32h155v-32h-155z" />
    <glyph glyph-name="ogonek" unicode="&#x2db;" horiz-adv-x="128" 
d="M55 4l29 -4c-38 -59 -42 -131 2 -131c6 0 14 2 22 5v-27c-10 -5 -22 -7 -32 -7c-65 0 -73 86 -21 164z" />
    <glyph glyph-name="ring" unicode="&#x2da;" horiz-adv-x="175" 
d="M16 683c0 41 30 71 72 71c41 0 71 -30 71 -71s-30 -71 -71 -71c-42 0 -72 30 -72 71zM47 683c0 -26 18 -44 41 -44s40 18 40 44c0 25 -17 43 -40 43s-41 -18 -41 -43z" />
    <glyph glyph-name="tilde" unicode="&#x2dc;" horiz-adv-x="259" 
d="M20 673c23 43 45 58 67 58c44 0 59 -58 86 -58c13 0 26 12 43 41l23 -14c-23 -43 -45 -58 -67 -58c-44 0 -59 58 -86 58c-14 0 -27 -12 -44 -42z" />
    <glyph glyph-name="acute.case" horiz-adv-x="145" 
d="M20 740l63 115h42l-71 -115h-34z" />
    <glyph glyph-name="breve.case" horiz-adv-x="209" 
d="M157 855h32c0 -67 -17 -120 -84 -120c-68 0 -85 53 -85 120h33c0 -50 9 -90 52 -90c42 0 52 40 52 90z" />
    <glyph glyph-name="caron.case" horiz-adv-x="224" 
d="M89 740l-69 115h37l55 -95l55 95h37l-68 -115h-47z" />
    <glyph glyph-name="circumflex.case" horiz-adv-x="224" 
d="M136 855l68 -115h-37l-55 95l-55 -95h-37l69 115h47z" />
    <glyph glyph-name="dieresis.case" horiz-adv-x="199" 
d="M20 793c0 14 10 25 24 25s25 -11 25 -25s-11 -24 -25 -24s-24 10 -24 24zM131 793c0 14 10 25 24 25s24 -11 24 -25s-10 -24 -24 -24s-24 10 -24 24z" />
    <glyph glyph-name="dotaccent.case" horiz-adv-x="90" 
d="M20 793c0 15 11 25 25 25c15 0 25 -10 25 -25c0 -14 -10 -25 -25 -25c-14 0 -25 11 -25 25z" />
    <glyph glyph-name="grave.case" horiz-adv-x="145" 
d="M91 740l-71 115h42l63 -115h-34z" />
    <glyph glyph-name="hungarumlaut.case" horiz-adv-x="233" 
d="M20 740l63 115h42l-71 -115h-34zM113 740l63 115h42l-71 -115h-34z" />
    <glyph glyph-name="macron.case" horiz-adv-x="195" 
d="M20 777v32h155v-32h-155z" />
    <glyph glyph-name="ring.case" horiz-adv-x="175" 
d="M16 798c0 41 30 71 72 71c41 0 71 -30 71 -71s-30 -71 -71 -71c-42 0 -72 30 -72 71zM47 798c0 -26 18 -44 41 -44s40 18 40 44c0 25 -17 43 -40 43s-41 -18 -41 -43z" />
    <glyph glyph-name="tilde.case" horiz-adv-x="259" 
d="M20 788c23 43 45 58 67 58c44 0 59 -58 86 -58c13 0 26 12 43 41l23 -14c-23 -43 -45 -58 -67 -58c-44 0 -59 58 -86 58c-14 0 -27 -12 -44 -42z" />
    <glyph glyph-name="arrowleft" unicode="&#x2190;" horiz-adv-x="680" 
d="M660 259h-568l273 -273l-27 -27l-318 319l318 318l27 -27l-273 -273h568v-37z" />
    <glyph glyph-name="arrowright" unicode="&#x2192;" horiz-adv-x="680" 
d="M20 296h568l-273 273l27 27l318 -318l-318 -319l-27 27l273 273h-568v37z" />
    <glyph glyph-name="arrowup" unicode="&#x2191;" horiz-adv-x="676" 
d="M319 0v568l-272 -273l-27 27l318 318l318 -318l-26 -27l-273 273v-568h-38z" />
    <glyph glyph-name="arrowdown" unicode="&#x2193;" horiz-adv-x="676" 
d="M357 630v-568l273 273l26 -27l-318 -318l-318 318l27 27l272 -273v568h38z" />
    <glyph glyph-name="uni2196" unicode="&#x2196;" horiz-adv-x="506" 
d="M459 89l-401 402v-385h-38v449h449v-38h-385l402 -401z" />
    <glyph glyph-name="uni2197" unicode="&#x2197;" horiz-adv-x="506" 
d="M448 491l-401 -402l-27 27l402 401h-385v38h449v-449h-38v385z" />
    <glyph glyph-name="uni2198" unicode="&#x2198;" horiz-adv-x="506" 
d="M47 466l401 -402v385h38v-449h-449v38h385l-402 401z" />
    <glyph glyph-name="uni2199" unicode="&#x2199;" horiz-adv-x="506" 
d="M58 64l401 402l27 -27l-402 -401h385v-38h-449v449h38v-385z" />
    <glyph glyph-name="arrowleft.case" horiz-adv-x="760" 
d="M740 331h-648l326 -325l-27 -27l-371 371l371 371l27 -26l-326 -326h648v-38z" />
    <glyph glyph-name="arrowright.case" horiz-adv-x="760" 
d="M20 369h648l-326 326l27 26l371 -371l-371 -371l-27 27l326 325h-648v38z" />
    <glyph glyph-name="arrowup.case" horiz-adv-x="782" 
d="M372 0v648l-325 -326l-27 27l371 371l371 -371l-26 -27l-326 326v-648h-38z" />
    <glyph glyph-name="arrowdown.case" horiz-adv-x="782" 
d="M410 700v-648l326 326l26 -27l-371 -371l-371 371l27 27l325 -326v648h38z" />
    <glyph glyph-name="uni2196.case" horiz-adv-x="574" 
d="M516 177l-458 459v-461h-38v525h525v-38h-461l459 -458z" />
    <glyph glyph-name="uni2198.case" horiz-adv-x="574" 
d="M516 636l-458 -459l-27 27l459 458h-461v38h525v-525h-38v461z" />
    <glyph glyph-name="uni2197.case" horiz-adv-x="574" 
d="M58 523l458 -459v461h38v-525h-525v38h461l-459 458z" />
    <glyph glyph-name="uni2199.case" horiz-adv-x="574" 
d="M58 64l458 459l27 -27l-459 -458h461v-38h-525v525h38v-461z" />
    </font>
</defs>
</svg>
