<?xml version="1.0" encoding="UTF-8"?>
<svg width="431px" height="261px" viewBox="0 0 431 261" version="1.1" xmlns="http://www.w3.org/2000/svg" xmlns:xlink="http://www.w3.org/1999/xlink">
    <!-- Generator: Sketch Beta 42 (36644) - http://www.bohemiancoding.com/sketch -->
    <title>Untitled 2</title>
    <desc>Created with Sketch Beta.</desc>
    <defs>
        <path d="M128,256 C198.6924,256 256,198.69245 256,128 C256,57.3076 198.6924,0 128,0 C57.30755,0 0,57.3076 0,128 C0,198.69245 57.30755,256 128,256 Z" id="path-1"></path>
        <path d="M22.81279,50.74338 C15.38995,50.74338 9.779,48.58082 5.92146,44.2557 C2.06393,39.9306 0.13516,33.7352 0.13516,25.6694 C0.13516,17.4283 2.12237,11.116 6.15525,6.674 C10.18813,2.232 15.97443,0.011 23.63105,0.011 C28.77443,0.011 33.45023,0.9461 37.54155,2.8749 L34.38539,11.2329 C30.00183,9.5379 26.37808,8.6612 23.51416,8.6612 C15.03927,8.6612 10.83105,14.2721 10.83105,25.4941 C10.83105,30.9881 11.88311,35.0795 13.98721,37.8849 C16.09132,40.632 19.18904,42.0347 23.28037,42.0347 C27.89772,42.0347 32.28128,40.8658 36.43105,38.5863 L36.43105,47.6457 C34.56073,48.75616 32.57352,49.51598 30.46941,49.98356 C28.3653,50.50959 25.79361,50.74338 22.81279,50.74338 Z" id="path-3"></path>
        <polygon id="path-5" points="11.1288 68.86667 0.7251 68.86667 0.7251 0.0155 11.1288 0.0155"></polygon>
        <path d="M7.7863,89.60913 C4.6886,89.60913 2.0584,89.25845 0.0128,88.49863 L0.0128,80.25753 C2,80.78356 4.0457,81.0758 6.1498,81.0758 C10.5918,81.0758 12.8128,78.56256 12.8128,73.53607 L12.8128,18.8877 L23.2164,18.8877 L23.2164,74.23744 C23.2164,79.26393 21.8721,83.12146 19.242,85.69315 C16.5534,88.32329 12.7543,89.60913 7.7863,89.60913 Z M12.1699,5.9708 C12.1699,4.1005 12.6959,2.6977 13.6895,1.7041 C14.6831,0.7105 16.1443,0.1845 18.0731,0.1845 C19.8849,0.1845 21.3461,0.7105 22.3397,1.7041 C23.3333,2.6977 23.8594,4.1589 23.8594,5.9708 C23.8594,7.7242 23.3333,9.1269 22.3397,10.179 C21.3461,11.1726 19.8849,11.6986 18.0731,11.6986 C16.2027,11.6986 14.7416,11.1726 13.6895,10.179 C12.6374,9.1269 12.1699,7.7242 12.1699,5.9708 Z" id="path-7"></path>
        <path d="M36.6895,35.9562 C36.6895,40.7489 34.9361,44.3726 31.4877,46.9443 C27.9808,49.51598 23.0128,50.74338 16.5251,50.74338 C9.979,50.74338 4.7772,49.74977 0.8027,47.7626 L0.8027,38.7616 C6.5306,41.3918 11.9078,42.7361 16.8758,42.7361 C23.2466,42.7361 26.4612,40.8073 26.4612,36.9498 C26.4612,35.7224 26.1105,34.6703 25.4091,33.8521 C24.7078,33.0338 23.5388,32.1571 21.9023,31.2804 C20.2658,30.4037 18.0447,29.41 15.1224,28.2995 C9.5114,26.137 5.6539,23.916 3.6667,21.7534 C1.6795,19.5909 0.6858,16.7269 0.6858,13.2785 C0.6858,9.0703 2.3808,5.8557 5.7708,3.5178 C9.1607,1.1799 13.7196,0.0694 19.5644,0.0694 C25.2922,0.0694 30.7279,1.2384 35.8712,3.5763 L32.4813,11.4082 C27.221,9.2457 22.779,8.1352 19.1553,8.1352 C13.6612,8.1352 10.9142,9.7132 10.9142,12.811 C10.9142,14.3306 11.6155,15.6164 13.0767,16.7269 C14.4795,17.779 17.6356,19.2402 22.4283,21.1105 C26.4612,22.6886 29.3836,24.0913 31.2539,25.3772 C33.0658,26.663 34.41,28.1826 35.3452,29.8776 C36.2219,31.5142 36.6895,33.5598 36.6895,35.9562 Z" id="path-9"></path>
        <path d="M107.6484,220.44566 C54.34429,215.71142 12.379,170.7653 12.379,116.2338 C12.379,61.7023 54.34429,16.8146 107.6484,12.0804 L107.6484,0.3324 C47.85662,5.1251 0.6895,55.2731 0.6895,116.2922 C0.6895,177.31142 47.85662,227.45936 107.6484,232.25205 L107.6484,220.44566 Z" id="path-11"></path>
        <path d="M0.3516,0.3324 L0.3516,12.0804 C53.6557,16.8146 95.621,61.7607 95.621,116.2922 C95.621,170.82374 53.6557,215.76986 0.3516,220.50411 L0.3516,232.25205 C60.1434,227.45936 107.3105,177.31142 107.3105,116.2922 C107.3105,55.2731 60.1434,5.1251 0.3516,0.3324 Z" id="path-13"></path>
    </defs>
    <g id="Page-1" stroke="none" stroke-width="1" fill="none" fill-rule="evenodd">
        <g id="clj_logo" transform="translate(8.000000, 2.000000)" fill-rule="nonzero">
            <path d="M127.999,0 C57.423,0 0,57.423 0,128.001 C0,198.585 57.423,256.005 127.999,256.005 C198.577,256.005 256,198.585 256,128.001 C256,57.423 198.577,0 127.999,0" id="path8" fill="#FFFFFF"></path>
            <path d="M123.318,130.303 C122.168,132.795 120.899,135.595 119.585,138.575 C114.94,149.099 109.796,161.905 107.917,170.109 C107.242,173.031 106.824,176.652 106.832,180.667 C106.832,182.255 106.917,183.924 107.052,185.624 C113.619,188.037 120.712,189.364 128.119,189.377 C134.862,189.364 141.34,188.25 147.403,186.234 C145.978,184.931 144.618,183.542 143.38,181.977 C135.16,171.495 130.574,156.133 123.318,130.303" id="path10" fill="#91DC47"></path>
            <path d="M92.97,78.225 C77.271,89.289 66.998,107.537 66.959,128.217 C66.998,148.588 76.962,166.6 92.266,177.71 C96.02,162.073 105.43,147.755 119.541,119.055 C118.703,116.753 117.748,114.233 116.679,111.586 C112.77,101.78 107.128,90.392 102.093,85.235 C99.526,82.541 96.411,80.213 92.97,78.225" id="path12" fill="#91DC47"></path>
            <path d="M181.394,198.367 C173.294,197.352 166.609,196.127 160.761,194.064 C150.925,198.948 139.848,201.707 128.119,201.707 C87.535,201.707 54.636,168.813 54.631,128.217 C54.631,106.19 64.335,86.444 79.687,72.977 C75.581,71.985 71.299,71.406 66.925,71.414 C45.363,71.617 22.602,83.55 13.126,115.777 C12.24,120.468 12.451,124.015 12.451,128.219 C12.451,192.104 64.242,243.895 128.122,243.895 C167.244,243.895 201.804,224.456 222.733,194.726 C211.413,197.547 200.527,198.896 191.205,198.925 C187.711,198.925 184.431,198.738 181.394,198.367" id="path14" fill="#63B132"></path>
            <path d="M159.658,175.953 C160.372,176.307 161.991,176.885 164.244,177.524 C179.401,166.397 189.251,148.474 189.29,128.217 L189.284,128.217 C189.227,94.446 161.898,67.121 128.119,67.054 C121.405,67.067 114.955,68.175 108.916,70.176 C121.335,84.332 127.307,104.562 133.084,126.691 C133.087,126.701 133.092,126.709 133.094,126.717 C133.105,126.735 134.942,132.862 138.096,140.991 C141.228,149.109 145.69,159.159 150.556,166.483 C153.751,171.391 157.265,174.918 159.658,175.953" id="path16" fill="#90B4FE"></path>
            <path d="M128.122,12.541 C89.378,12.541 55.106,31.614 34.114,60.859 C45.039,54.017 56.194,51.549 65.929,51.637 C79.375,51.676 89.946,55.845 95.018,58.697 C96.243,59.403 97.406,60.163 98.545,60.944 C107.595,56.958 117.595,54.729 128.119,54.729 C168.708,54.734 201.612,87.628 201.618,128.217 L201.612,128.217 C201.612,148.681 193.242,167.184 179.749,180.508 C183.061,180.879 186.593,181.11 190.2,181.092 C203.011,181.098 216.858,178.271 227.239,169.54 C234.008,163.838 239.679,155.489 242.824,142.971 C243.439,138.136 243.793,133.221 243.793,128.219 C243.793,64.337 192.007,12.541 128.122,12.541" id="path18" fill="#5881D8"></path>
        </g>
        <g transform="translate(168.000000, 3.000000)">
            <g id="Group-3">
                <mask id="mask-2" fill="white">
                    <use xlink:href="#path-1"></use>
                </mask>
                <g id="Clip-2"></g>
                <polygon id="Fill-1" fill="#FFFFFF" mask="url(#mask-2)" points="-5 261 261 261 261 -5 -5 -5"></polygon>
            </g>
            <g id="Group-6" transform="translate(52.000000, 108.000000)">
                <mask id="mask-4" fill="white">
                    <use xlink:href="#path-3"></use>
                </mask>
                <g id="Clip-5"></g>
                <polygon id="Fill-4" fill="#96CA4B" mask="url(#mask-4)" points="-4.86484 55.74338 42.54155 55.74338 42.54155 -4.98904 -4.86484 -4.98904"></polygon>
            </g>
            <g id="Group-9" transform="translate(106.000000, 89.000000)">
                <mask id="mask-6" fill="white">
                    <use xlink:href="#path-5"></use>
                </mask>
                <g id="Clip-8"></g>
                <polygon id="Fill-7" fill="#96CA4B" mask="url(#mask-6)" points="-4.2749 73.86667 16.12875 73.86667 16.12875 -4.98447 -4.2749 -4.98447"></polygon>
            </g>
            <g id="Group-12" transform="translate(126.000000, 90.000000)">
                <mask id="mask-8" fill="white">
                    <use xlink:href="#path-7"></use>
                </mask>
                <g id="Clip-11"></g>
                <polygon id="Fill-10" fill="#5F7FBF" mask="url(#mask-8)" points="-4.9872 94.60913 28.85938 94.60913 28.85938 -4.81553 -4.9872 -4.81553"></polygon>
            </g>
            <g id="Group-15" transform="translate(167.000000, 108.000000)">
                <mask id="mask-10" fill="white">
                    <use xlink:href="#path-9"></use>
                </mask>
                <g id="Clip-14"></g>
                <polygon id="Fill-13" fill="#5F7FBF" mask="url(#mask-10)" points="-4.3142 55.74338 41.68945 55.74338 41.68945 -4.93059 -4.3142 -4.93059"></polygon>
            </g>
            <g id="Group-18" transform="translate(11.000000, 12.000000)">
                <mask id="mask-12" fill="white">
                    <use xlink:href="#path-11"></use>
                </mask>
                <g id="Clip-17"></g>
                <polygon id="Fill-16" fill="#96CA4B" mask="url(#mask-12)" points="-4.310502 237.252055 112.648398 237.252055 112.648398 -4.667545 -4.310502 -4.667545"></polygon>
            </g>
            <path d="M118.6484,232.4456 C65.34429,227.7114 23.379,182.7653 23.379,128.2338 C23.379,73.70226 65.34429,28.81459 118.6484,24.08035 L118.6484,12.3324 C58.85662,17.125094 11.6895,67.27304 11.6895,128.2922 C11.6895,189.3114 58.85662,239.4593 118.6484,244.252 L118.6484,232.4456 L118.6484,232.4456 L118.6484,232.4456 Z" id="Stroke-19" stroke="#96CA4B" stroke-width="6"></path>
            <g id="Group-22" transform="translate(137.000000, 12.000000)">
                <mask id="mask-14" fill="white">
                    <use xlink:href="#path-13"></use>
                </mask>
                <g id="Clip-21"></g>
                <polygon id="Fill-20" fill="#5F7FBF" mask="url(#mask-14)" points="-4.6484 237.252055 112.3105 237.252055 112.3105 -4.667545 -4.6484 -4.667545"></polygon>
            </g>
            <path d="M137.3516,12.3324 L137.3516,24.08035 C190.65571,28.81459 232.62101,73.76071 232.62101,128.2922 C232.62101,182.8237 190.65571,227.7698 137.3516,232.5041 L137.3516,244.252 C197.14338,239.4593 244.3105,189.3114 244.3105,128.2922 C244.3105,67.27304 197.14338,17.125094 137.3516,12.3324 L137.3516,12.3324 L137.3516,12.3324 Z" id="Stroke-23" stroke="#5F7FBF" stroke-width="6"></path>
        </g>
    </g>
</svg>