<?xml version="1.0" encoding="UTF-8" standalone="no"?>
<!DOCTYPE svg PUBLIC "-//W3C//DTD SVG 1.1//EN" "http://www.w3.org/Graphics/SVG/1.1/DTD/svg11.dtd">
<svg width="100%" height="100%" viewBox="0 0 591 591" version="1.1" xmlns="http://www.w3.org/2000/svg" xmlns:xlink="http://www.w3.org/1999/xlink" xml:space="preserve" xmlns:serif="http://www.serif.com/" style="fill-rule:evenodd;clip-rule:evenodd;stroke-linejoin:round;stroke-miterlimit:2;">
    <rect id="Artboard1" x="0" y="0" width="590.537" height="590.537" style="fill:none;"/>
    <path d="M162.819,519.759L267.367,519.759L267.367,496.027L187.192,496.027L187.192,70.778L162.819,70.778L162.819,519.759Z" style="fill-rule:nonzero;" fill="white"/>
    <path d="M300.72,383.14L300.72,462.674C300.72,499.234 327.659,526.173 364.219,526.173C400.779,526.173 427.718,499.234 427.718,462.674L427.718,394.686C427.718,310.021 325.094,265.123 325.094,195.21L325.094,127.863C325.094,104.772 341.77,88.096 364.219,88.096C386.668,88.096 403.345,104.772 403.345,127.863L403.345,206.755L427.718,206.755L427.718,127.863C427.718,91.303 400.779,64.364 364.219,64.364C327.659,64.364 300.72,91.303 300.72,127.863L300.72,195.21C300.72,279.875 403.345,324.773 403.345,394.686L403.345,462.674C403.345,485.765 386.668,502.441 364.219,502.441C341.77,502.441 325.094,485.765 325.094,462.674L325.094,383.14L300.72,383.14Z" style="fill-rule:nonzero;" fill="white"/>
</svg>
